<svg width="51" height="51" viewBox="0 0 51 51" fill="none" xmlns="http://www.w3.org/2000/svg">
<circle cx="25.9233" cy="25.2676" r="25" fill="#2EA2EB"/>
<path d="M25.9222 26.4676C27.6895 26.4676 29.1222 25.0349 29.1222 23.2676C29.1222 21.5003 27.6895 20.0676 25.9222 20.0676C24.1549 20.0676 22.7222 21.5003 22.7222 23.2676C22.7222 25.0349 24.1549 26.4676 25.9222 26.4676Z" stroke="white" stroke-linecap="round" stroke-linejoin="round"/>
<path d="M33.9233 23.2676C33.9233 30.4676 25.9233 36.0676 25.9233 36.0676C25.9233 36.0676 17.9233 30.4676 17.9233 23.2676C17.9233 21.1458 18.7662 19.111 20.2665 17.6107C21.7668 16.1104 23.8016 15.2676 25.9233 15.2676C28.0451 15.2676 30.0799 16.1104 31.5802 17.6107C33.0805 19.111 33.9233 21.1458 33.9233 23.2676V23.2676Z" stroke="white" stroke-linecap="round" stroke-linejoin="round"/>
</svg>
