<svg width="51" height="51" viewBox="0 0 51 51" fill="none" xmlns="http://www.w3.org/2000/svg">
<circle cx="25.9233" cy="25.2676" r="25" fill="#2EA2EB"/>
<path d="M22.0686 25.3295C22.8754 26.9956 24.2226 28.3394 25.8908 29.1419C26.0138 29.2002 26.1499 29.2254 26.2857 29.2151C26.4214 29.2048 26.5522 29.1593 26.665 29.0831L29.1151 27.4464C29.2234 27.373 29.3485 27.3282 29.4787 27.3162C29.609 27.3042 29.7401 27.3254 29.86 27.3778L34.4466 29.3477C34.6034 29.413 34.7343 29.5279 34.8193 29.6749C34.9043 29.8219 34.9387 29.9928 34.917 30.1612C34.7717 31.2958 34.2178 32.3386 33.3592 33.0944C32.5005 33.8503 31.3959 34.2673 30.252 34.2676C26.717 34.2676 23.3268 32.8633 20.8272 30.3637C18.3276 27.8641 16.9233 24.4739 16.9233 20.9389C16.9236 19.795 17.3407 18.6904 18.0965 17.8317C18.8523 16.9731 19.8951 16.4193 21.0297 16.2739C21.1982 16.2523 21.369 16.2866 21.516 16.3716C21.663 16.4566 21.7779 16.5876 21.8432 16.7443L23.8131 21.3407C23.8643 21.4587 23.8857 21.5874 23.8755 21.7156C23.8652 21.8438 23.8236 21.9675 23.7543 22.0758L22.1176 24.5651C22.0447 24.6777 22.002 24.8071 21.9934 24.9409C21.9848 25.0748 22.0107 25.2086 22.0686 25.3295V25.3295Z" stroke="white" stroke-linecap="round" stroke-linejoin="round"/>
</svg>
