<svg width="70" height="70" viewBox="0 0 70 70" fill="none" xmlns="http://www.w3.org/2000/svg">
<circle cx="34.9368" cy="35.0322" r="34.9368" fill="#FFECBB"/>
<path d="M30.1922 33.7278C31.5778 36.5892 33.8916 38.8971 36.7566 40.2754C36.9679 40.3754 37.2017 40.4188 37.4349 40.401C37.668 40.3833 37.8925 40.3052 38.0863 40.1744L42.2943 37.3635C42.4802 37.2374 42.695 37.1604 42.9187 37.1398C43.1424 37.1192 43.3677 37.1556 43.5735 37.2456L51.4508 40.6288C51.7201 40.7409 51.945 40.9383 52.091 41.1908C52.237 41.4432 52.2959 41.7366 52.2588 42.0259C52.0091 43.9746 51.0579 45.7655 49.5832 47.0636C48.1086 48.3617 46.2114 49.078 44.2468 49.0784C38.1756 49.0784 32.3531 46.6667 28.0602 42.3737C23.7672 38.0808 21.3555 32.2583 21.3555 26.1871C21.3559 24.2225 22.0722 22.3253 23.3703 20.8507C24.6684 19.376 26.4593 18.4248 28.408 18.1751C28.6973 18.138 28.9907 18.1969 29.2431 18.3429C29.4956 18.4889 29.693 18.7138 29.8051 18.9831L33.1883 26.8772C33.2762 27.0798 33.313 27.3009 33.2954 27.521C33.2778 27.7412 33.2063 27.9536 33.0873 28.1396L30.2764 32.4149C30.1512 32.6083 30.0778 32.8305 30.063 33.0604C30.0483 33.2902 30.0928 33.52 30.1922 33.7278V33.7278Z" stroke="#DEAA27" stroke-width="2.67041" stroke-linecap="round" stroke-linejoin="round"/>
</svg>
