<svg width="101" height="101" viewBox="0 0 101 101" fill="none" xmlns="http://www.w3.org/2000/svg">
<path d="M71.4336 59.9509C71.4336 67.6829 65.1656 73.9509 57.4336 73.9509C49.7016 73.9509 43.4336 67.6829 43.4336 59.9509C43.4336 52.2189 49.7016 45.9509 57.4336 45.9509C65.1656 45.9509 71.4336 52.2189 71.4336 59.9509ZM47.0726 59.9509C47.0726 65.6732 51.7114 70.3119 57.4336 70.3119C63.1558 70.3119 67.7946 65.6732 67.7946 59.9509C67.7946 54.2287 63.1558 49.5899 57.4336 49.5899C51.7114 49.5899 47.0726 54.2287 47.0726 59.9509Z" fill="#FF2C2B"/>
<path d="M45.9805 60.0075C45.9917 66.1522 50.9504 71.2085 57.2369 71.2085C67.2258 71.1706 72.1756 59.0354 65.1226 52.0178C58.0966 45.029 45.9702 49.9494 45.9805 60.0075ZM57.2305 69.5706C57.2199 69.5706 57.2092 69.5706 57.1985 69.5706C51.9728 69.5706 47.6279 65.3454 47.6184 60.0048C47.6089 52.0405 56.0506 50.1966 54.641 50.7426C57.7862 49.8511 61.4092 50.6341 63.9678 53.1791C69.9895 59.1707 65.7698 69.5378 57.2305 69.5706Z" fill="#242B42"/>
<path d="M80.3117 80.9828C78.565 78.9882 77.2694 77.7507 76.0164 76.5532C71.701 72.429 72.3014 72.5678 71.675 72.1162C71.8585 71.4931 71.9464 70.8336 71.8853 70.2526C71.7662 69.1278 70.9719 68.1948 69.9896 67.9589C74.5904 60.5149 71.833 50.8169 64.0498 46.8446C63.4707 34.5612 65.3406 27.6514 61.0589 21.6919C59.2853 18.7777 56.6245 16.7418 53.4566 15.9997C53.3272 15.9694 53.2009 15.9798 53.0802 16.0091C52.5246 15.792 54.5617 15.9599 20.6331 15.6179C19.8515 15.6179 19.2148 16.254 19.2148 17.0356V70.8205C19.2148 71.2012 19.4266 71.5205 19.7276 71.7045C20.0896 72.2271 20.3657 72.6663 20.8197 73.2782C29.4343 73.1415 39.8296 73.4324 48.4919 73.307C53.0954 76.5462 58.9263 76.579 63.4742 74.2989C63.8493 75.494 65.2259 76.0959 66.4844 76.0962C67.8213 77.696 73.4515 83.1094 73.9637 83.6087C75.6733 85.2754 76.3562 85.534 77.0254 85.4388C77.9425 85.7153 79.0403 85.7257 79.7348 85.0798C80.6412 84.2368 81.2597 82.0663 80.3117 80.9828ZM70.5865 60.1036C70.6068 67.4348 64.6576 73.416 57.3264 73.4368C57.3168 73.4368 57.3083 73.4368 57.2987 73.4368C46.1375 73.4368 39.9338 60.4411 46.9902 51.7359C49.5217 48.6403 53.2625 46.8595 57.2539 46.8515C57.256 46.8547 57.288 46.8515 57.3051 46.8515C64.6053 46.8515 70.5588 52.7863 70.5865 60.1036ZM54.0947 17.9117C57.3075 19.0275 59.7393 21.6907 60.9523 25.4202C58.7609 25.4522 56.4946 25.4738 54.0175 25.3068C53.9575 22.7967 54.0708 20.8081 54.0947 17.9117ZM20.8528 17.2574L52.4617 17.4702C52.4509 20.2651 52.3123 22.6982 52.3817 25.4428C52.4073 26.2324 53.0482 26.8882 53.8341 26.9357C56.5256 27.1218 58.9558 27.0882 61.3028 27.054L61.2546 36.4017L61.2063 45.7493C52.2029 43.3 43.3568 49.5566 42.4425 58.6008C41.6139 62.895 42.6911 66.92 45.2707 70.2318H20.8528V17.2574ZM78.6194 83.8801C78.3748 84.1037 77.2112 83.9467 76.861 83.5453C73.4364 79.6358 72.1679 78.8847 68.9874 75.3338C69.8117 74.8396 70.4394 74.2963 70.9071 73.6656C74.1996 77.3681 75.7767 78.2889 79.079 82.062C79.2741 82.2843 79.0683 83.4621 78.6194 83.8801Z" fill="#242B42"/>
<path d="M58.539 54.6616C59.7398 54.9058 60.7069 56.1011 60.6952 57.3259C60.691 57.778 61.0546 58.148 61.5067 58.1523H61.5142C61.9631 58.1523 62.3289 57.7908 62.3331 57.3408C62.3513 55.3382 60.8285 53.456 58.8654 53.0567C58.4207 52.9655 57.9888 53.2524 57.8992 53.696C57.8097 54.139 58.0954 54.5715 58.539 54.6616Z" fill="#242B42"/>
<path d="M60.7084 59.7948L60.6018 59.8887C60.0377 60.3862 60.3912 61.3213 61.1435 61.3213C61.3365 61.3213 61.5295 61.2536 61.6852 61.116L61.7726 61.0403C62.116 60.746 62.1565 60.2294 61.8633 59.8855C61.5689 59.5416 61.0528 59.5032 60.7084 59.7948Z" fill="#242B42"/>
</svg>
