<svg width="308" height="308" viewBox="0 0 308 308" fill="none" xmlns="http://www.w3.org/2000/svg">
<g clip-path="url(#clip0_421_21019)">
<mask id="mask0_421_21019" style="mask-type:luminance" maskUnits="userSpaceOnUse" x="0" y="0" width="308" height="308">
<path d="M308 0H0V308H308V0Z" fill="white"/>
</mask>
<g mask="url(#mask0_421_21019)">
<path d="M154.711 242.403C233.765 241.525 271.404 217.337 267.623 169.851C261.956 98.6245 202.333 113.218 182.236 96.5763C162.137 79.9346 191.232 107.997 146.325 69.4107C116.388 43.685 87.1335 47.0479 58.5608 79.4957C32.3731 110.871 32.452 144.372 58.7937 179.994C85.1373 215.614 117.11 236.418 154.711 242.403Z" fill="#E4E4E4"/>
<path d="M88.5498 244.474H207.9V67.3735H88.5498V244.474ZM203.193 133.622V182.587V242.549H96.2498V73.4065H203.193V133.622Z" fill="white"/>
<path d="M96.252 242.55H203.193V182.588V133.622V73.4043H96.252V242.55Z" fill="#0D4F80"/>
<path d="M203.963 75.368L209.54 69.772C210.218 69.0944 210.216 67.9971 209.538 67.3215C208.861 66.6458 207.763 66.6477 207.088 67.3253L201.511 72.9213C200.833 73.5989 200.835 74.6961 201.515 75.3718C202.19 76.0475 203.288 76.0456 203.963 75.368Z" fill="#0F2B49"/>
<path d="M93.5119 75.368L87.9313 69.772C87.2557 69.0944 87.2576 67.9971 87.9352 67.3215C88.6128 66.6458 89.71 66.6477 90.3857 67.3253L95.9663 72.9213C96.642 73.5989 96.64 74.6961 95.9624 75.3718C95.2848 76.0475 94.1876 76.0456 93.5119 75.368Z" fill="#0F2B49"/>
<path d="M240.546 242.468H186.725H183.21H80.9942L80.7748 242.481C79.922 242.587 79.2617 243.317 79.2617 244.198C79.2617 245.155 80.0375 245.933 80.9942 245.933H183.21H186.725H240.546L240.762 245.919C241.618 245.811 242.275 245.082 242.275 244.198C242.275 243.242 241.503 242.468 240.546 242.468Z" fill="#0F2B49"/>
<path d="M73.2325 242.468H63.6075L63.39 242.481C62.5353 242.587 61.875 243.317 61.875 244.198C61.875 245.155 62.6508 245.933 63.6075 245.933H73.2325L73.45 245.919C74.3047 245.811 74.965 245.082 74.965 244.198C74.965 243.242 74.1892 242.468 73.2325 242.468Z" fill="#0F2B49"/>
<path d="M147.176 187.545L183.095 160.324L147.176 132.929V147.193H145.444H97.4053V173.271H147.176V187.545Z" fill="#EB0000"/>
<path d="M188.818 160.333L143.707 125.93V143.728H97.4072V145.461V147.193H145.442H147.172V132.931L183.091 160.324L147.172 187.545V173.273H97.4072V175.006V176.738H143.707V194.517L188.818 160.333Z" fill="white"/>
<path d="M96.9479 73.3916L96.8574 241.483L104.952 242.468L202.124 244.488L199.685 71.9556L96.9479 73.3916Z" fill="white"/>
<path d="M200.523 243.517L200.519 71.0625L200.463 71.1048L200.488 243.285L200.523 243.517Z" fill="#6DE2FF"/>
<path d="M94.3262 71.226L178.942 70.5157C179.894 70.4041 180.755 71.0836 180.867 72.0326V72.0365C180.974 72.9874 180.299 73.844 179.348 73.9557L176.576 74.2829L96.8537 74.7738V172.727V241.485L104.891 241.76L134.484 242.564L195.054 242.414L199.986 242.389L199.959 235.914V232.449L199.926 73.8286L190.517 73.7478L184.697 73.8344C183.748 73.9461 182.888 73.2665 182.774 72.3194V72.3156C182.661 71.3666 183.342 70.5042 184.291 70.3925L203.372 70.354L203.422 231.403V232.449V235.914V236.686L203.424 245.879L94.3262 244.476L93.3926 242.468V74.9952L94.3262 71.226Z" fill="#0F2B49"/>
<path d="M171.684 160.48L181.977 158.812C184.712 158.287 186.539 154.517 186.117 151.978C185.648 149.154 182.854 146.343 180.03 146.801L169.737 148.469C167.149 148.889 165.046 151.812 165.597 155.305C166.148 158.798 168.86 160.938 171.684 160.48Z" fill="#0F2B49"/>
</g>
</g>
<defs>
<clipPath id="clip0_421_21019">
<rect width="308" height="308" fill="white"/>
</clipPath>
</defs>
</svg>
