<svg width="70" height="71" viewBox="0 0 70 71" fill="none" xmlns="http://www.w3.org/2000/svg">
<circle cx="34.9368" cy="35.71" r="34.9368" fill="#EAEAEA"/>
<path d="M34.3814 36.9996C37.1038 36.9996 39.3107 34.7927 39.3107 32.0704C39.3107 29.348 37.1038 27.1411 34.3814 27.1411C31.659 27.1411 29.4521 29.348 29.4521 32.0704C29.4521 34.7927 31.659 36.9996 34.3814 36.9996Z" stroke="#35434C" stroke-width="2.67041" stroke-linecap="round" stroke-linejoin="round"/>
<path d="M46.7029 32.0704C46.7029 43.1613 34.3798 51.7875 34.3798 51.7875C34.3798 51.7875 22.0566 43.1613 22.0566 32.0704C22.0566 28.8021 23.355 25.6677 25.666 23.3567C27.977 21.0456 31.1115 19.7473 34.3798 19.7473C37.6481 19.7473 40.7825 21.0456 43.0935 23.3567C45.4046 25.6677 46.7029 28.8021 46.7029 32.0704V32.0704Z" stroke="#35434C" stroke-width="2.67041" stroke-linecap="round" stroke-linejoin="round"/>
</svg>
