<svg width="70" height="71" viewBox="0 0 70 71" fill="none" xmlns="http://www.w3.org/2000/svg">
<circle cx="34.9368" cy="35.71" r="34.9368" fill="#EAEAEA"/>
<path d="M34.3819 36.9996C37.1042 36.9996 39.3111 34.7927 39.3111 32.0704C39.3111 29.348 37.1042 27.1411 34.3819 27.1411C31.6595 27.1411 29.4526 29.348 29.4526 32.0704C29.4526 34.7927 31.6595 36.9996 34.3819 36.9996Z" stroke="#35434C" stroke-width="2.67041" stroke-linecap="round" stroke-linejoin="round"/>
<path d="M46.7034 32.0704C46.7034 43.1613 34.3803 51.7875 34.3803 51.7875C34.3803 51.7875 22.0571 43.1613 22.0571 32.0704C22.0571 28.8021 23.3555 25.6677 25.6665 23.3567C27.9775 21.0456 31.112 19.7473 34.3803 19.7473C37.6486 19.7473 40.783 21.0456 43.094 23.3567C45.4051 25.6677 46.7034 28.8021 46.7034 32.0704V32.0704Z" stroke="#35434C" stroke-width="2.67041" stroke-linecap="round" stroke-linejoin="round"/>
</svg>
