<svg width="282" height="254" viewBox="0 0 282 254" fill="none" xmlns="http://www.w3.org/2000/svg">
<rect x="0.402344" y="0.208984" width="281.332" height="253.199" rx="14.0666" fill="#6FD480"/>
<path d="M121.812 104.685C115.735 104.685 111.852 100.887 111.852 94.9369H114.891C114.891 99.2835 117.549 101.9 121.854 101.9C126.411 101.9 129.365 98.8615 129.365 94.3884C129.365 90.1684 126.622 86.8346 121.854 86.8346C119.069 86.8346 116.537 88.1006 114.891 89.9152L112.485 89.1556L116.115 73.9636H130.716V76.7488H118.309L116.03 86.2438C117.718 84.8934 119.913 84.1338 122.276 84.1338C128.563 84.1338 132.446 88.6492 132.446 94.304C132.446 100.381 128.141 104.685 121.812 104.685ZM151.014 80.8844C151.014 85.231 147.934 88.3538 143.629 88.3538C139.325 88.3538 136.202 85.231 136.202 80.8844C136.202 76.5378 139.325 73.3728 143.629 73.3728C147.934 73.3728 151.014 76.5378 151.014 80.8844ZM166.333 73.9636L143.376 104.179H140.338L163.252 73.9636H166.333ZM148.482 80.8844C148.482 77.8882 146.499 75.8204 143.629 75.8204C140.717 75.8204 138.734 77.8882 138.734 80.8844C138.734 83.8384 140.76 85.9484 143.629 85.9484C146.457 85.9484 148.482 83.8384 148.482 80.8844ZM170.51 97.2579C170.51 101.605 167.43 104.727 163.125 104.727C158.821 104.727 155.698 101.605 155.698 97.2579C155.698 92.9114 158.821 89.7464 163.125 89.7464C167.43 89.7464 170.51 92.9114 170.51 97.2579ZM167.978 97.2579C167.978 94.2618 165.995 92.194 163.125 92.194C160.214 92.194 158.23 94.2618 158.23 97.2579C158.23 100.212 160.256 102.28 163.125 102.28C165.953 102.28 167.978 100.212 167.978 97.2579Z" fill="white"/>
<path d="M50.5259 134.192V132.335H64.9582V134.192H58.7408V152.479H56.7152V134.192H50.5259ZM69.147 152.816C66.2492 152.816 64.5331 151.184 64.5331 148.793C64.5331 146.289 66.4462 144.714 69.6252 144.461L74.1265 144.095V143.645C74.1265 140.972 72.523 140.128 70.5255 140.128C68.1623 140.128 66.7556 141.197 66.7556 143.026H64.9832C64.9832 140.269 67.2339 138.496 70.5818 138.496C73.7327 138.496 76.0396 140.072 76.0396 143.673V152.479H74.4079L74.1547 150.087C73.3107 151.803 71.4539 152.816 69.147 152.816ZM69.5971 151.241C72.4667 151.241 74.1265 149.243 74.1265 146.289V145.558L70.1035 145.867C67.5434 146.092 66.5024 147.218 66.5024 148.737C66.5024 150.397 67.7403 151.241 69.5971 151.241ZM81.9605 152.479H80.0194V131.969H81.9605V145.895L88.7125 138.862H91.1601L85.9273 144.292L91.1882 152.479H88.9376L84.6051 145.67L81.9605 148.399V152.479ZM94.4636 135.12C93.6758 135.12 93.0288 134.473 93.0288 133.686C93.0288 132.898 93.6758 132.223 94.4636 132.223C95.2513 132.223 95.9265 132.898 95.9265 133.686C95.9265 134.473 95.2513 135.12 94.4636 135.12ZM93.507 152.479V138.862H95.4482V152.479H93.507ZM101.438 152.479H99.4963V138.862H101.184L101.466 141.225C102.366 139.481 104.166 138.496 106.136 138.496C109.877 138.496 111.425 140.719 111.425 144.151V152.479H109.484V144.573C109.484 141.394 108.049 140.269 105.798 140.269C103.013 140.269 101.438 142.294 101.438 145.361V152.479ZM114.365 145.276C114.365 141.563 116.757 138.496 120.752 138.496C123.115 138.496 124.915 139.594 125.787 141.591L125.984 138.862H127.672V152.057C127.672 156.108 125.084 158.752 121.089 158.752C117.601 158.752 115.153 156.783 114.619 153.491H116.56C116.982 155.686 118.67 156.98 121.117 156.98C123.903 156.98 125.759 155.095 125.759 152.253V149.018C124.831 150.931 122.946 152.057 120.611 152.057C116.729 152.057 114.365 148.99 114.365 145.276ZM116.307 145.248C116.307 148.033 118.023 150.312 120.892 150.312C123.846 150.312 125.591 148.174 125.591 145.248C125.591 142.351 123.903 140.212 120.92 140.212C117.995 140.212 116.307 142.491 116.307 145.248ZM155.843 153.632L153.705 151.213C152.186 152.253 150.357 152.816 148.303 152.816C142.649 152.816 138.71 148.512 138.71 142.407C138.71 136.302 142.677 131.969 148.303 131.969C153.958 131.969 157.897 136.274 157.897 142.407C157.897 145.53 156.856 148.174 155.112 150.003L157.222 152.366L155.843 153.632ZM155.815 142.407C155.815 137.371 152.748 133.939 148.303 133.939C143.858 133.939 140.82 137.371 140.82 142.407C140.82 147.443 143.858 150.875 148.303 150.875C149.851 150.875 151.229 150.453 152.354 149.721L149.738 146.767L151.088 145.501L153.761 148.484C155.055 146.993 155.815 144.883 155.815 142.407ZM170.713 138.862H172.654V152.479H170.966L170.713 150.172C169.953 151.747 168.068 152.816 165.93 152.816C162.723 152.816 160.979 150.622 160.979 147.302V138.834H162.948V146.683C162.948 149.918 164.383 151.072 166.549 151.072C169.166 151.072 170.713 149.328 170.713 146.092V138.862ZM177.654 135.12C176.867 135.12 176.22 134.473 176.22 133.686C176.22 132.898 176.867 132.223 177.654 132.223C178.442 132.223 179.117 132.898 179.117 133.686C179.117 134.473 178.442 135.12 177.654 135.12ZM176.698 152.479V138.862H178.639V152.479H176.698ZM192.027 152.479H181.759V150.931L189.636 140.494H181.759V138.862H192.027V140.437L184.122 150.847H192.027V152.479ZM204.5 152.479H194.232V150.931L202.109 140.494H194.232V138.862H204.5V140.437L196.595 150.847H204.5V152.479ZM212.905 152.816C208.91 152.816 206.237 149.947 206.237 145.67C206.237 141.422 208.882 138.496 212.764 138.496C216.45 138.496 218.953 141.113 218.953 144.967V145.923H208.122C208.263 149.243 210.007 151.156 212.933 151.156C215.156 151.156 216.59 150.2 217.097 148.399H218.953C218.222 151.269 216.112 152.816 212.905 152.816ZM212.764 140.156C210.204 140.156 208.516 141.844 208.178 144.517H217.012C217.012 141.9 215.324 140.156 212.764 140.156ZM220.904 148.652H222.76C222.76 150.228 223.942 151.213 225.855 151.213C227.965 151.213 229.203 150.312 229.203 148.849C229.203 147.724 228.64 147.077 227.037 146.683L224.702 146.092C222.338 145.501 221.185 144.264 221.185 142.407C221.185 140.016 223.182 138.496 226.108 138.496C228.978 138.496 230.835 140.072 230.919 142.604H229.034C228.978 141.028 227.881 140.1 226.052 140.1C224.139 140.1 223.07 140.916 223.07 142.379C223.07 143.42 223.801 144.151 225.292 144.517L227.628 145.108C229.991 145.698 231.06 146.796 231.06 148.765C231.06 151.213 228.978 152.816 225.883 152.816C222.817 152.816 220.904 151.184 220.904 148.652Z" fill="white"/>
<path d="M81.0811 173.255H77.8465V171.815H82.6098V187.678H81.0811V173.255ZM93.7388 187.656H92.2101V171.527H93.7388V178.816C94.4256 177.531 95.7328 176.667 97.5273 176.667C100.341 176.667 101.604 178.417 101.604 181.12V187.678H100.075V181.453C100.075 178.949 98.9009 178.063 97.2393 178.063C94.9352 178.063 93.7388 179.769 93.7388 181.829V187.656ZM103.897 182.317C103.897 179.038 106.201 176.667 109.347 176.667C112.493 176.667 114.798 179.038 114.798 182.317C114.798 185.574 112.493 187.944 109.347 187.944C106.201 187.944 103.897 185.574 103.897 182.317ZM105.448 182.295C105.448 184.82 107.043 186.57 109.347 186.57C111.629 186.57 113.247 184.82 113.247 182.295C113.247 179.813 111.629 178.041 109.347 178.041C107.043 178.041 105.448 179.813 105.448 182.295ZM124.516 176.955H126.044V187.678H124.715L124.516 185.862C123.917 187.102 122.433 187.944 120.749 187.944C118.224 187.944 116.85 186.216 116.85 183.602V176.933H118.401V183.114C118.401 185.662 119.531 186.57 121.237 186.57C123.297 186.57 124.516 185.197 124.516 182.649V176.955ZM134.834 176.822V178.196H133.992C132.02 178.196 130.757 179.525 130.757 181.563V187.678H129.229V176.955H130.669L130.78 178.617C131.201 177.465 132.33 176.712 133.837 176.712C134.169 176.712 134.457 176.734 134.834 176.822ZM142.922 187.678H141.415L147.597 171.815H149.148L142.922 187.678ZM159.139 187.678L155.594 176.955H157.167L159.272 183.424C159.516 184.133 159.715 184.865 159.936 185.729C160.114 184.865 160.468 183.779 160.579 183.424L162.706 176.955H164.279L166.384 183.424C166.583 184.001 166.849 184.931 167.048 185.729C167.27 184.842 167.314 184.577 167.691 183.424L169.818 176.955H171.413L167.779 187.678H166.295L164.079 180.943C163.814 180.146 163.636 179.481 163.503 178.838C163.348 179.414 163.171 180.057 162.883 180.943L160.668 187.678H159.139ZM177.344 187.944C174.198 187.944 172.093 185.684 172.093 182.317C172.093 178.971 174.176 176.667 177.233 176.667C180.135 176.667 182.107 178.728 182.107 181.763V182.516H173.577C173.688 185.13 175.062 186.637 177.366 186.637C179.116 186.637 180.246 185.884 180.645 184.466H182.107C181.531 186.726 179.869 187.944 177.344 187.944ZM177.233 177.974C175.217 177.974 173.887 179.304 173.622 181.408H180.578C180.578 179.348 179.249 177.974 177.233 177.974ZM189.049 187.944C185.903 187.944 183.798 185.684 183.798 182.317C183.798 178.971 185.88 176.667 188.938 176.667C191.84 176.667 193.812 178.728 193.812 181.763V182.516H185.282C185.393 185.13 186.767 186.637 189.071 186.637C190.821 186.637 191.951 185.884 192.35 184.466H193.812C193.236 186.726 191.574 187.944 189.049 187.944ZM188.938 177.974C186.922 177.974 185.592 179.304 185.327 181.408H192.283C192.283 179.348 190.954 177.974 188.938 177.974ZM197.851 187.678H196.322V171.527H197.851V182.494L203.168 176.955H205.096L200.975 181.231L205.118 187.678H203.346L199.934 182.317L197.851 184.466V187.678Z" fill="white"/>
</svg>
