<svg width="20" height="17" viewBox="0 0 20 17" fill="none" xmlns="http://www.w3.org/2000/svg">
<path fill-rule="evenodd" clip-rule="evenodd" d="M11.4373 0.772988C10.7643 -0.257012 9.23631 -0.257012 8.56331 0.772988L5.16331 5.97299L2.56531 4.49999C1.26331 3.76199 -0.301689 4.91799 0.0503106 6.35599L1.81631 13.557C1.85594 13.7156 1.94765 13.8563 2.07675 13.9565C2.20584 14.0568 2.36485 14.1108 2.52831 14.11H17.4723C17.6358 14.1108 17.7948 14.0568 17.9239 13.9565C18.053 13.8563 18.1447 13.7156 18.1843 13.557L19.9493 6.35699C20.3023 4.91699 18.7373 3.76199 17.4353 4.49999L14.8373 5.97199L11.4373 0.772988ZM10.2053 1.55499C10.1829 1.52116 10.1524 1.49341 10.1166 1.47421C10.0809 1.45502 10.0409 1.44497 10.0003 1.44497C9.95972 1.44497 9.91975 1.45502 9.88398 1.47421C9.84821 1.49341 9.81775 1.52116 9.79531 1.55499L6.01831 7.33199C5.91483 7.48797 5.75609 7.59894 5.57406 7.64254C5.39203 7.68615 5.20023 7.65915 5.03731 7.56699L1.83431 5.75299C1.64831 5.64799 1.42431 5.81299 1.47531 6.01799L3.10531 12.667H16.8953L18.5253 6.01799C18.5753 5.81299 18.3523 5.64799 18.1653 5.75299L14.9633 7.56699C14.8005 7.65886 14.6089 7.68569 14.4271 7.64209C14.2453 7.5985 14.0868 7.48771 13.9833 7.33199L10.2053 1.55499Z" fill="white"/>
<path d="M3.16269 15.5552C3.06708 15.5545 2.97229 15.5727 2.88371 15.6087C2.79513 15.6447 2.71451 15.6977 2.64644 15.7649C2.57838 15.832 2.5242 15.9119 2.48701 16C2.44982 16.0881 2.43034 16.1826 2.42969 16.2782C2.42969 16.6772 2.75869 17.0002 3.16269 17.0002H16.8427C17.0356 17.0015 17.2211 16.9262 17.3586 16.7909C17.496 16.6555 17.5741 16.4711 17.5757 16.2782C17.575 16.1826 17.5556 16.0881 17.5184 16C17.4812 15.9119 17.427 15.832 17.3589 15.7649C17.2909 15.6977 17.2102 15.6447 17.1217 15.6087C17.0331 15.5727 16.9383 15.5545 16.8427 15.5552H3.16269Z" fill="white"/>
</svg>
