<svg width="57" height="57" viewBox="0 0 57 57" fill="none" xmlns="http://www.w3.org/2000/svg">
<path d="M48.5652 48.5655H40.1194V35.3394C40.1194 32.1852 40.0632 28.1266 35.7266 28.1266C31.3282 28.1266 30.6541 31.5617 30.6541 35.1119V48.5655H22.2112V21.3661H30.3199V25.082H30.4322C31.244 23.6952 32.4165 22.5543 33.8251 21.7808C35.2336 21.0073 36.8255 20.63 38.4314 20.6892C46.9923 20.6892 48.568 26.3206 48.568 33.6429L48.5652 48.5655ZM12.6813 17.6474C11.3814 17.6474 10.1348 17.131 9.21561 16.2119C8.29646 15.2927 7.78009 14.0461 7.78009 12.7462C7.78009 11.4463 8.29646 10.1997 9.21561 9.28055C10.1348 8.36141 11.3814 7.84503 12.6813 7.84503C13.9811 7.84503 15.2278 8.36141 16.1469 9.28055C17.0661 10.1997 17.5824 11.4463 17.5824 12.7462C17.5824 14.0461 17.0661 15.2927 16.1469 16.2119C15.2278 17.131 13.9811 17.6474 12.6813 17.6474ZM16.9027 48.5655H8.44856V21.3661H16.9027V48.5655ZM52.7754 0.00315622H4.20462C3.10235 -0.00883352 2.04039 0.417196 1.25201 1.18766C0.463643 1.95813 0.0133325 3.01002 0 4.11228L0 52.8825C0.028087 55.18 1.90991 57.0197 4.20462 56.9944H52.7754C53.8802 57.0079 54.9452 56.5825 55.7366 55.8116C56.5281 55.0407 56.9813 53.9872 56.9969 52.8825V4.10947C56.9813 3.00497 56.528 1.95181 55.7365 1.18133C54.9449 0.410862 53.8799 -0.0139045 52.7754 0.000347394" fill="#52B2EE"/>
</svg>
