<svg width="16" height="16" viewBox="0 0 16 16" fill="none" xmlns="http://www.w3.org/2000/svg">
<path d="M7.5332 0.638672C3.3932 0.638672 0.0332031 3.99867 0.0332031 8.13867C0.0332031 12.2787 3.3932 15.6387 7.5332 15.6387C11.6732 15.6387 15.0332 12.2787 15.0332 8.13867C15.0332 3.99867 11.6732 0.638672 7.5332 0.638672ZM7.5332 14.1387C4.2257 14.1387 1.5332 11.4462 1.5332 8.13867C1.5332 4.83117 4.2257 2.13867 7.5332 2.13867C10.8407 2.13867 13.5332 4.83117 13.5332 8.13867C13.5332 11.4462 10.8407 14.1387 7.5332 14.1387ZM11.5063 5.35805C11.2136 5.06323 10.737 5.06239 10.4432 5.35617L6.73894 9.06043C6.34895 9.45042 5.71684 9.45103 5.3261 9.0618L4.61996 8.35839C4.32749 8.06705 3.85437 8.06751 3.56246 8.35941C3.27016 8.65171 3.27016 9.12563 3.56246 9.41793L5.3261 11.1816C5.71662 11.5721 6.34979 11.5721 6.74031 11.1816L11.5044 6.41742C11.7968 6.1251 11.7976 5.65141 11.5063 5.35805Z" fill="#07B524"/>
</svg>
