<svg width="66" height="66" viewBox="0 0 66 66" fill="none" xmlns="http://www.w3.org/2000/svg">
<circle cx="33" cy="33" r="33" fill="#FDF5E7"/>
<path d="M28.7827 39.6741C28.626 39.6742 28.4744 39.6182 28.3552 39.5164L24.0819 35.8777C24.0091 35.8157 23.9506 35.7386 23.9105 35.6518C23.8704 35.565 23.8496 35.4705 23.8496 35.3749C23.8496 35.2792 23.8704 35.1847 23.9105 35.0979C23.9506 35.0111 24.0091 34.934 24.0819 34.872L28.3552 31.2333C28.4885 31.1198 28.6615 31.0638 28.836 31.0778C29.0106 31.0917 29.1725 31.1744 29.286 31.3077C29.5223 31.5856 29.4891 32.0023 29.2112 32.2385L25.5287 35.3747L29.2112 38.5107C29.3142 38.5983 29.3878 38.7154 29.4221 38.8462C29.4564 38.977 29.4498 39.1151 29.403 39.242C29.3563 39.3689 29.2717 39.4783 29.1608 39.5556C29.0499 39.6329 28.918 39.6742 28.7827 39.6741ZM37.2186 39.6741C37.0318 39.6741 36.8461 39.5952 36.7157 39.4416C36.6021 39.3082 36.5462 39.1353 36.5601 38.9607C36.5741 38.7862 36.6568 38.6243 36.7901 38.5107L40.4727 35.3747L36.7901 32.2385C36.6616 32.1236 36.583 31.963 36.5713 31.791C36.5596 31.619 36.6156 31.4493 36.7274 31.318C36.8391 31.1867 36.9978 31.1044 37.1695 31.0885C37.3412 31.0727 37.5122 31.1246 37.6461 31.2333L41.9194 34.8719C41.9923 34.9339 42.0508 35.011 42.0909 35.0978C42.131 35.1846 42.1517 35.2791 42.1517 35.3748C42.1517 35.4704 42.131 35.5649 42.0909 35.6517C42.0508 35.7385 41.9923 35.8156 41.9194 35.8776L37.6461 39.5163C37.527 39.6181 37.3754 39.6741 37.2187 39.6741H37.2186ZM31.4879 42.4033C31.3896 42.4035 31.2924 42.3816 31.2036 42.3394C31.1147 42.2972 31.0365 42.2356 30.9744 42.1593C30.9124 42.0829 30.8682 41.9937 30.8451 41.8981C30.822 41.8025 30.8205 41.7029 30.8408 41.6066L33.504 28.9617C33.5401 28.7904 33.6428 28.6403 33.7895 28.5447C33.9363 28.449 34.115 28.4156 34.2864 28.4517C34.4578 28.4878 34.6078 28.5905 34.7034 28.7373C34.7991 28.884 34.8325 29.0627 34.7964 29.2341L32.1332 41.8789C32.102 42.027 32.0209 42.16 31.9035 42.2554C31.786 42.3509 31.6393 42.4031 31.4879 42.4033Z" fill="#EF9D0E"/>
<path d="M48.566 49.2911H17.434C14.9892 49.2911 13 47.3023 13 44.8572V18.434C13 15.9892 14.9892 14 17.434 14H48.566C51.0108 14 53 15.9892 53 18.434V44.8572C53 47.3023 51.0108 49.2911 48.566 49.2911ZM17.434 15.3208C15.7175 15.3208 14.3208 16.7175 14.3208 18.434V44.8572C14.3208 46.5737 15.7175 47.9704 17.434 47.9704H48.566C50.2825 47.9704 51.6792 46.5737 51.6792 44.8572V18.434C51.6792 16.7175 50.2825 15.3208 48.566 15.3208H17.434Z" fill="#EF9D0E"/>
<path d="M52.3403 24.5748H13.661C13.4878 24.5719 13.3227 24.5011 13.2012 24.3775C13.0798 24.254 13.0117 24.0877 13.0117 23.9145C13.0117 23.7412 13.0798 23.5749 13.2012 23.4514C13.3227 23.3279 13.4878 23.257 13.661 23.2541H52.3403C52.5135 23.257 52.6786 23.3279 52.8001 23.4514C52.9215 23.5749 52.9896 23.7412 52.9896 23.9145C52.9896 24.0877 52.9215 24.254 52.8001 24.3775C52.6786 24.5011 52.5135 24.5719 52.3403 24.5748ZM24.2839 21.4148C23.1319 21.4148 22.194 20.4769 22.194 19.3249C22.194 18.1727 23.1319 17.2351 24.2839 17.2351C25.4361 17.2351 26.3737 18.1727 26.3737 19.3249C26.3737 20.4769 25.4361 21.4148 24.2839 21.4148ZM24.2839 18.5559C23.86 18.5559 23.5147 18.9008 23.5147 19.3249C23.5147 19.7491 23.86 20.0941 24.2839 20.0941C24.708 20.0941 25.0529 19.7492 25.0529 19.3249C25.0529 18.9007 24.708 18.5559 24.2839 18.5559ZM17.8629 21.3946C16.7105 21.3946 15.773 20.457 15.773 19.3047C15.773 18.1524 16.7105 17.2148 17.8628 17.2148C19.0152 17.2148 19.9526 18.1524 19.9526 19.3047C19.9526 20.457 19.0153 21.3946 17.8629 21.3946ZM17.8629 18.5356C17.439 18.5356 17.0938 18.8809 17.0938 19.3047C17.0938 19.7289 17.439 20.0738 17.8628 20.0738C18.287 20.0738 18.6319 19.7289 18.6319 19.3047C18.6319 18.8809 18.2871 18.5356 17.8629 18.5356ZM30.7048 21.4347C29.5529 21.4347 28.6154 20.4972 28.6154 19.3448C28.6154 18.193 29.5528 17.2554 30.7048 17.2554C31.8572 17.2554 32.7946 18.1929 32.7946 19.3448C32.7946 20.4972 31.8572 21.4347 30.7048 21.4347ZM30.7048 18.5758C30.281 18.5758 29.9361 18.9207 29.9361 19.3448C29.9361 19.769 30.281 20.114 30.7048 20.114C31.129 20.114 31.4739 19.769 31.4739 19.3448C31.4739 18.9207 31.129 18.5758 30.7048 18.5758Z" fill="#EF9D0E"/>
</svg>
