<svg width="72" height="71" viewBox="0 0 72 71" fill="none" xmlns="http://www.w3.org/2000/svg">
<circle cx="35.9183" cy="35.6902" r="35.1429" fill="#52B2EE"/>
<path d="M36.885 43.2809C41.384 43.2809 45.0311 39.6337 45.0311 35.1347C45.0311 30.6357 41.384 26.9885 36.885 26.9885C32.3859 26.9885 28.7388 30.6357 28.7388 35.1347C28.7388 39.6337 32.3859 43.2809 36.885 43.2809Z" stroke="white" stroke-width="2.66345" stroke-linecap="round" stroke-linejoin="round"/>
<path d="M48.3425 27.1893C48.7522 27.7682 49.111 28.3808 49.4147 29.0202L53.8228 31.4391C54.3732 33.8722 54.379 36.3945 53.8398 38.8301L49.4147 41.249C49.111 41.8884 48.7522 42.5009 48.3425 43.0799L48.4276 48.0688C46.5594 49.749 44.3484 51.0148 41.9431 51.7811L37.6031 49.2111C36.8892 49.2615 36.1726 49.2615 35.4586 49.2111L31.1357 51.7643C28.7228 51.012 26.5044 49.7511 24.6342 48.0688L24.7193 43.0967C24.313 42.5097 23.9544 41.8919 23.647 41.249L19.2389 38.8301C18.6885 36.397 18.6827 33.8746 19.2219 31.4391L23.647 29.0202C23.9508 28.3808 24.3095 27.7682 24.7193 27.1893L24.6342 22.2003C26.5023 20.5202 28.7134 19.2544 31.1186 18.488L35.4586 21.0581C36.1726 21.0077 36.8892 21.0077 37.6031 21.0581L41.9261 18.5048C44.339 19.2572 46.5573 20.5181 48.4276 22.2003L48.3425 27.1893Z" stroke="white" stroke-width="2.66345" stroke-linecap="round" stroke-linejoin="round"/>
</svg>
