<svg width="57" height="82" viewBox="0 0 57 82" fill="none" xmlns="http://www.w3.org/2000/svg">
<path d="M56.1756 54.0243C56.1756 57.9073 55.4979 61.5338 54.1425 64.904C52.7872 68.2741 50.9006 71.2046 48.4829 73.6956C46.0652 76.1499 43.1896 78.0914 39.8561 79.5201C36.5226 80.9121 32.8778 81.6081 28.9215 81.6081C24.4891 81.6081 20.5145 80.7839 16.9979 79.1354C13.5179 77.487 10.569 75.1059 8.15132 71.9922C5.73362 68.8419 3.88371 64.9956 2.6016 60.4532C1.31949 55.9109 0.678433 50.7641 0.678433 45.0129C0.678433 38.236 1.50265 32.1002 3.15108 26.6054C4.83614 21.074 7.21721 16.3485 10.2943 12.4289C13.408 8.50933 17.1627 5.48721 21.5586 3.36256C25.9544 1.20129 30.8997 0.12065 36.3944 0.12065C42.4753 0.12065 47.2008 0.83497 50.5709 2.26361V16.7698C46.5781 14.4986 42.2189 13.363 37.4934 13.363C34.5628 13.363 31.907 13.9308 29.526 15.0664C27.1449 16.202 25.0935 17.8138 23.3718 19.9018C21.6868 21.9898 20.3497 24.5174 19.3606 27.4846C18.4082 30.4151 17.8954 33.6937 17.8221 37.3202H18.1518C21.8882 32.1552 27.4013 29.5726 34.6911 29.5726C37.9513 29.5726 40.9001 30.1587 43.5376 31.3309C46.1751 32.5032 48.428 34.1699 50.2962 36.3312C52.1644 38.4558 53.6114 41.02 54.6371 44.0239C55.6628 47.0277 56.1756 50.3612 56.1756 54.0243ZM39.1968 55.1233C39.1968 46.6613 35.7351 42.4304 28.8116 42.4304C27.2365 42.4304 25.8078 42.7234 24.5257 43.3095C23.2436 43.8956 22.1447 44.7199 21.2289 45.7822C20.3131 46.8445 19.5988 48.1083 19.0859 49.5736C18.6097 51.0022 18.3716 52.5957 18.3716 54.354C18.3716 56.2955 18.628 58.1088 19.1409 59.7938C19.6537 61.4789 20.368 62.9625 21.2838 64.2446C22.2362 65.4901 23.3535 66.4791 24.6356 67.2118C25.9177 67.9444 27.3464 68.3107 28.9215 68.3107C30.4967 68.3107 31.907 67.9994 33.1525 67.3766C34.4346 66.7172 35.5153 65.8198 36.3944 64.6842C37.3102 63.512 38.0062 62.12 38.4824 60.5082C38.9587 58.8597 39.1968 57.0648 39.1968 55.1233Z" fill="#52B2EE"/>
</svg>
