<svg width="183" height="55" viewBox="0 0 183 55" fill="none" xmlns="http://www.w3.org/2000/svg">
<rect x="0.675" y="0.758496" width="180.9" height="52.65" rx="8.775" fill="black"/>
<rect x="0.675" y="0.758496" width="180.9" height="52.65" rx="8.775" stroke="#A6A6A6" stroke-width="1.35"/>
<path d="M110.06 26.005V29.0978H108.121V31.1261H110.06V38.0179C110.06 40.3711 111.125 41.3124 113.803 41.3124C114.273 41.3124 114.722 41.2564 115.114 41.1892V39.1833C114.778 39.2169 114.565 39.2393 114.195 39.2393C112.996 39.2393 112.469 38.679 112.469 37.4015V31.1261H115.114V29.0978H112.469V26.005H110.06Z" fill="white"/>
<path d="M121.937 41.4805C125.5 41.4805 127.685 39.0936 127.685 35.1379C127.685 31.2046 125.489 28.8065 121.937 28.8065C118.373 28.8065 116.177 31.2046 116.177 35.1379C116.177 39.0936 118.362 41.4805 121.937 41.4805ZM121.937 39.3402C119.841 39.3402 118.664 37.805 118.664 35.1379C118.664 32.4933 119.841 30.9468 121.937 30.9468C124.021 30.9468 125.209 32.4933 125.209 35.1379C125.209 37.7937 124.021 39.3402 121.937 39.3402Z" fill="white"/>
<path d="M129.555 41.2452H131.964V34.0397C131.964 32.3252 133.253 31.171 135.08 31.171C135.505 31.171 136.223 31.2494 136.424 31.3166V28.941C136.167 28.8737 135.707 28.8401 135.348 28.8401C133.757 28.8401 132.401 29.7142 132.054 30.9132H131.875V29.0418H129.555V41.2452Z" fill="white"/>
<path d="M142.407 30.8572C144.188 30.8572 145.354 32.1011 145.41 34.0173H139.246C139.381 32.1123 140.625 30.8572 142.407 30.8572ZM145.399 37.9506C144.95 38.9031 143.953 39.4298 142.496 39.4298C140.569 39.4298 139.325 38.0739 139.246 35.9335V35.7991H147.864V34.9586C147.864 31.1261 145.813 28.8065 142.418 28.8065C138.977 28.8065 136.792 31.283 136.792 35.1827C136.792 39.0824 138.933 41.4805 142.429 41.4805C145.219 41.4805 147.169 40.1358 147.718 37.9506H145.399Z" fill="white"/>
<path d="M94.2602 36.7387C94.446 39.7353 96.9432 41.6517 100.66 41.6517C104.632 41.6517 107.118 39.6424 107.118 36.4367C107.118 33.9163 105.701 32.5225 102.263 31.7211L100.416 31.2681C98.2324 30.7571 97.3497 30.0718 97.3497 28.8755C97.3497 27.3656 98.7202 26.3783 100.776 26.3783C102.727 26.3783 104.075 27.3424 104.319 28.8871H106.851C106.7 26.0647 104.214 24.0786 100.811 24.0786C97.1523 24.0786 94.7132 26.0647 94.7132 29.0497C94.7132 31.5121 96.0953 32.9755 99.1268 33.684L101.287 34.2067C103.506 34.7293 104.481 35.4959 104.481 36.7735C104.481 38.2602 102.948 39.3404 100.857 39.3404C98.6157 39.3404 97.0593 38.3299 96.8386 36.7387H94.2602Z" fill="white"/>
<path d="M69.3023 28.8401C67.6438 28.8401 66.2094 29.6694 65.4698 31.0589H65.2905V29.0418H62.9709V45.3018H65.3802V39.3962H65.5707C66.2094 40.6849 67.5877 41.4469 69.3247 41.4469C72.4064 41.4469 74.3674 39.0152 74.3674 35.1379C74.3674 31.2606 72.4064 28.8401 69.3023 28.8401ZM68.6187 39.2841C66.6016 39.2841 65.3353 37.6929 65.3353 35.1491C65.3353 32.5941 66.6016 31.0029 68.6299 31.0029C70.6694 31.0029 71.8909 32.5605 71.8909 35.1379C71.8909 37.7265 70.6694 39.2841 68.6187 39.2841Z" fill="white"/>
<path d="M82.798 28.8401C81.1395 28.8401 79.7051 29.6694 78.9655 31.0589H78.7862V29.0418H76.4665V45.3018H78.8758V39.3962H79.0663C79.7051 40.6849 81.0834 41.4469 82.8204 41.4469C85.902 41.4469 87.8631 39.0152 87.8631 35.1379C87.8631 31.2606 85.902 28.8401 82.798 28.8401ZM82.1144 39.2841C80.0973 39.2841 78.831 37.6929 78.831 35.1491C78.831 32.5941 80.0973 31.0029 82.1256 31.0029C84.1651 31.0029 85.3866 32.5605 85.3866 35.1379C85.3866 37.7265 84.1651 39.2841 82.1144 39.2841Z" fill="white"/>
<path d="M58.6482 41.2452H61.4125L55.3612 24.4851H52.562L46.5107 41.2452H49.1821L50.7269 36.7968H57.115L58.6482 41.2452ZM53.828 27.5282H54.0255L56.453 34.6132H51.3889L53.828 27.5282Z" fill="white"/>
<path d="M48.1289 11.8431V19.9283H51.0481C53.4574 19.9283 54.8525 18.4435 54.8525 15.8605C54.8525 13.3167 53.4462 11.8431 51.0481 11.8431H48.1289ZM49.384 12.9861H50.908C52.5833 12.9861 53.575 14.0507 53.575 15.8773C53.575 17.7319 52.6001 18.7853 50.908 18.7853H49.384V12.9861Z" fill="white"/>
<path d="M59.1254 20.046C60.9072 20.046 61.9998 18.8525 61.9998 16.8746C61.9998 14.908 60.9016 13.7089 59.1254 13.7089C57.3436 13.7089 56.2455 14.908 56.2455 16.8746C56.2455 18.8525 57.338 20.046 59.1254 20.046ZM59.1254 18.9758C58.0776 18.9758 57.4893 18.2082 57.4893 16.8746C57.4893 15.5523 58.0776 14.7791 59.1254 14.7791C60.1676 14.7791 60.7615 15.5523 60.7615 16.8746C60.7615 18.2026 60.1676 18.9758 59.1254 18.9758Z" fill="white"/>
<path d="M71.3041 13.8266H70.0995L69.0125 18.4827H68.9173L67.6622 13.8266H66.508L65.2529 18.4827H65.1632L64.0706 13.8266H62.8492L64.5301 19.9283H65.7684L67.0234 15.4347H67.1187L68.3794 19.9283H69.6288L71.3041 13.8266Z" fill="white"/>
<path d="M72.6915 19.9283H73.8961V16.3592C73.8961 15.4067 74.462 14.8127 75.3529 14.8127C76.2438 14.8127 76.6696 15.3002 76.6696 16.2807V19.9283H77.8743V15.9782C77.8743 14.527 77.1235 13.7089 75.7619 13.7089C74.843 13.7089 74.2379 14.118 73.9409 14.7959H73.8513V13.8266H72.6915V19.9283Z" fill="white"/>
<path d="M79.7714 19.9283H80.9761V11.4453H79.7714V19.9283Z" fill="white"/>
<path d="M85.5067 20.046C87.2885 20.046 88.3811 18.8525 88.3811 16.8746C88.3811 14.908 87.2829 13.7089 85.5067 13.7089C83.7249 13.7089 82.6267 14.908 82.6267 16.8746C82.6267 18.8525 83.7193 20.046 85.5067 20.046ZM85.5067 18.9758C84.4589 18.9758 83.8706 18.2082 83.8706 16.8746C83.8706 15.5523 84.4589 14.7791 85.5067 14.7791C86.5489 14.7791 87.1428 15.5523 87.1428 16.8746C87.1428 18.2026 86.5489 18.9758 85.5067 18.9758Z" fill="white"/>
<path d="M91.9704 19.015C91.3148 19.015 90.8385 18.6956 90.8385 18.1465C90.8385 17.6086 91.2195 17.3229 92.06 17.2669L93.5504 17.1716V17.6815C93.5504 18.4379 92.878 19.015 91.9704 19.015ZM91.6622 20.0292C92.4634 20.0292 93.1302 19.6818 93.4944 19.071H93.5896V19.9283H94.7495V15.7596C94.7495 14.4709 93.8866 13.7089 92.357 13.7089C90.973 13.7089 89.9869 14.3813 89.8636 15.4291H91.029C91.1635 14.9976 91.6286 14.7511 92.3009 14.7511C93.1246 14.7511 93.5504 15.1153 93.5504 15.7596V16.2863L91.8975 16.3816C90.4463 16.4712 89.6283 17.1044 89.6283 18.2026C89.6283 19.3176 90.4855 20.0292 91.6622 20.0292Z" fill="white"/>
<path d="M98.8374 20.0292C99.6779 20.0292 100.389 19.6313 100.754 18.9646H100.849V19.9283H102.003V11.4453H100.798V14.7959H100.709C100.378 14.1236 99.6723 13.7257 98.8374 13.7257C97.2966 13.7257 96.3049 14.9472 96.3049 16.8746C96.3049 18.8077 97.2854 20.0292 98.8374 20.0292ZM99.1792 14.8071C100.188 14.8071 100.821 15.6084 100.821 16.8802C100.821 18.1577 100.193 18.9478 99.1792 18.9478C98.1595 18.9478 97.5487 18.1689 97.5487 16.8746C97.5487 15.5916 98.1651 14.8071 99.1792 14.8071Z" fill="white"/>
<path d="M109.815 20.046C111.597 20.046 112.689 18.8525 112.689 16.8746C112.689 14.908 111.591 13.7089 109.815 13.7089C108.033 13.7089 106.935 14.908 106.935 16.8746C106.935 18.8525 108.028 20.046 109.815 20.046ZM109.815 18.9758C108.767 18.9758 108.179 18.2082 108.179 16.8746C108.179 15.5523 108.767 14.7791 109.815 14.7791C110.857 14.7791 111.451 15.5523 111.451 16.8746C111.451 18.2026 110.857 18.9758 109.815 18.9758Z" fill="white"/>
<path d="M114.284 19.9283H115.489V16.3592C115.489 15.4067 116.054 14.8127 116.945 14.8127C117.836 14.8127 118.262 15.3002 118.262 16.2807V19.9283H119.467V15.9782C119.467 14.527 118.716 13.7089 117.354 13.7089C116.435 13.7089 115.83 14.118 115.533 14.7959H115.444V13.8266H114.284V19.9283Z" fill="white"/>
<path d="M125.015 12.3082V13.8546H124.045V14.8688H125.015V18.3146C125.015 19.4913 125.547 19.9619 126.886 19.9619C127.122 19.9619 127.346 19.9339 127.542 19.9003V18.8973C127.374 18.9141 127.267 18.9254 127.082 18.9254C126.483 18.9254 126.219 18.6452 126.219 18.0065V14.8688H127.542V13.8546H126.219V12.3082H125.015Z" fill="white"/>
<path d="M129.159 19.9283H130.363V16.3648C130.363 15.4403 130.913 14.8183 131.899 14.8183C132.75 14.8183 133.204 15.3114 133.204 16.2863V19.9283H134.409V15.9894C134.409 14.5382 133.608 13.7145 132.308 13.7145C131.389 13.7145 130.744 14.1236 130.447 14.8071H130.352V11.4453H129.159V19.9283Z" fill="white"/>
<path d="M138.755 14.7343C139.645 14.7343 140.228 15.3562 140.256 16.3143H137.174C137.242 15.3618 137.864 14.7343 138.755 14.7343ZM140.251 18.281C140.026 18.7573 139.528 19.0206 138.799 19.0206C137.836 19.0206 137.214 18.3426 137.174 17.2725V17.2052H141.483V16.785C141.483 14.8688 140.458 13.7089 138.76 13.7089C137.04 13.7089 135.947 14.9472 135.947 16.8971C135.947 18.8469 137.018 20.046 138.766 20.046C140.161 20.046 141.136 19.3736 141.41 18.281H140.251Z" fill="white"/>
<path d="M33.4383 27.4894C33.4675 25.2201 34.6863 23.0728 36.6196 21.8842C35.4 20.1422 33.357 19.0378 31.2316 18.9713C28.9646 18.7333 26.7669 20.3278 25.6117 20.3278C24.4341 20.3278 22.6555 18.9949 20.7402 19.0343C18.2437 19.115 15.9163 20.5343 14.7017 22.7169C12.0908 27.2373 14.0383 33.8807 16.5394 37.5347C17.7907 39.3239 19.2531 41.3225 21.1667 41.2516C23.0392 41.1739 23.7386 40.0576 25.9989 40.0576C28.2382 40.0576 28.8943 41.2516 30.8467 41.2065C32.856 41.1739 34.122 39.4094 35.3294 37.6032C36.2285 36.3283 36.9203 34.9193 37.3793 33.4283C35.0179 32.4296 33.441 30.0533 33.4383 27.4894Z" fill="white"/>
<path d="M29.7505 16.5683C30.8461 15.2531 31.3858 13.5627 31.2551 11.856C29.5814 12.0318 28.0353 12.8317 26.9249 14.0964C25.8391 15.3321 25.2741 16.9928 25.3809 18.6343C27.0553 18.6515 28.7013 17.8733 29.7505 16.5683Z" fill="white"/>
</svg>
