<svg width="66" height="66" viewBox="0 0 66 66" fill="none" xmlns="http://www.w3.org/2000/svg">
<circle cx="33" cy="33" r="33" fill="#FCE7E7"/>
<path d="M28.7827 39.6729C28.626 39.6729 28.4744 39.617 28.3552 39.5151L24.0819 35.8765C24.0091 35.8145 23.9506 35.7374 23.9105 35.6506C23.8704 35.5638 23.8496 35.4693 23.8496 35.3736C23.8496 35.278 23.8704 35.1835 23.9105 35.0967C23.9506 35.0099 24.0091 34.9328 24.0819 34.8708L28.3552 31.2321C28.4885 31.1186 28.6615 31.0626 28.836 31.0765C29.0106 31.0905 29.1725 31.1732 29.286 31.3065C29.5223 31.5844 29.4891 32.0011 29.2112 32.2373L25.5287 35.3734L29.2112 38.5095C29.3142 38.5971 29.3878 38.7142 29.4221 38.845C29.4564 38.9758 29.4498 39.1139 29.403 39.2408C29.3563 39.3677 29.2717 39.4771 29.1608 39.5544C29.0499 39.6317 28.918 39.673 28.7827 39.6729ZM37.2186 39.6729C37.0318 39.6729 36.8461 39.594 36.7157 39.4403C36.6021 39.307 36.5462 39.1341 36.5601 38.9595C36.5741 38.7849 36.6568 38.6231 36.7901 38.5095L40.4727 35.3734L36.7901 32.2373C36.6616 32.1224 36.583 31.9618 36.5713 31.7898C36.5596 31.6178 36.6156 31.448 36.7274 31.3168C36.8391 31.1855 36.9978 31.1032 37.1695 31.0873C37.3412 31.0715 37.5122 31.1234 37.6461 31.232L41.9194 34.8707C41.9923 34.9327 42.0508 35.0098 42.0909 35.0966C42.131 35.1834 42.1517 35.2779 42.1517 35.3735C42.1517 35.4692 42.131 35.5637 42.0909 35.6505C42.0508 35.7373 41.9923 35.8144 41.9194 35.8764L37.6461 39.515C37.527 39.6169 37.3754 39.6729 37.2187 39.6729H37.2186ZM31.4879 42.4021C31.3896 42.4022 31.2924 42.3804 31.2036 42.3382C31.1147 42.2959 31.0365 42.2344 30.9744 42.158C30.9124 42.0817 30.8682 41.9925 30.8451 41.8969C30.822 41.8012 30.8205 41.7017 30.8408 41.6054L33.504 28.9605C33.5401 28.7891 33.6428 28.6391 33.7895 28.5435C33.9363 28.4478 34.115 28.4144 34.2864 28.4505C34.4578 28.4866 34.6078 28.5893 34.7034 28.736C34.7991 28.8828 34.8325 29.0615 34.7964 29.2329L32.1332 41.8777C32.102 42.0258 32.0209 42.1587 31.9035 42.2542C31.786 42.3497 31.6393 42.4019 31.4879 42.4021Z" fill="#DF0C0C"/>
<path d="M48.566 49.2911H17.434C14.9892 49.2911 13 47.3023 13 44.8572V18.434C13 15.9892 14.9892 14 17.434 14H48.566C51.0108 14 53 15.9892 53 18.434V44.8572C53 47.3023 51.0108 49.2911 48.566 49.2911ZM17.434 15.3208C15.7175 15.3208 14.3208 16.7175 14.3208 18.434V44.8572C14.3208 46.5737 15.7175 47.9704 17.434 47.9704H48.566C50.2825 47.9704 51.6792 46.5737 51.6792 44.8572V18.434C51.6792 16.7175 50.2825 15.3208 48.566 15.3208H17.434Z" fill="#DF0C0C"/>
<path d="M52.3403 24.5745H13.661C13.4878 24.5715 13.3227 24.5007 13.2012 24.3772C13.0798 24.2536 13.0117 24.0873 13.0117 23.9141C13.0117 23.7409 13.0798 23.5746 13.2012 23.451C13.3227 23.3275 13.4878 23.2566 13.661 23.2537H52.3403C52.5135 23.2566 52.6786 23.3275 52.8001 23.451C52.9215 23.5746 52.9896 23.7409 52.9896 23.9141C52.9896 24.0873 52.9215 24.2536 52.8001 24.3772C52.6786 24.5007 52.5135 24.5715 52.3403 24.5745ZM24.2839 21.4145C23.1319 21.4145 22.194 20.4766 22.194 19.3246C22.194 18.1723 23.1319 17.2348 24.2839 17.2348C25.4361 17.2348 26.3737 18.1723 26.3737 19.3246C26.3737 20.4766 25.4361 21.4145 24.2839 21.4145ZM24.2839 18.5555C23.86 18.5555 23.5147 18.9004 23.5147 19.3246C23.5147 19.7487 23.86 20.0937 24.2839 20.0937C24.708 20.0937 25.0529 19.7488 25.0529 19.3246C25.0529 18.9003 24.708 18.5555 24.2839 18.5555ZM17.8629 21.3942C16.7105 21.3942 15.773 20.4566 15.773 19.3044C15.773 18.152 16.7105 17.2145 17.8628 17.2145C19.0152 17.2145 19.9526 18.152 19.9526 19.3044C19.9526 20.4566 19.0153 21.3942 17.8629 21.3942ZM17.8629 18.5352C17.439 18.5352 17.0938 18.8805 17.0938 19.3044C17.0938 19.7285 17.439 20.0734 17.8628 20.0734C18.287 20.0734 18.6319 19.7285 18.6319 19.3044C18.6319 18.8805 18.2871 18.5352 17.8629 18.5352ZM30.7048 21.4344C29.5529 21.4344 28.6154 20.4968 28.6154 19.3445C28.6154 18.1926 29.5528 17.255 30.7048 17.255C31.8572 17.255 32.7946 18.1925 32.7946 19.3445C32.7946 20.4968 31.8572 21.4344 30.7048 21.4344ZM30.7048 18.5754C30.281 18.5754 29.9361 18.9203 29.9361 19.3445C29.9361 19.7686 30.281 20.1136 30.7048 20.1136C31.129 20.1136 31.4739 19.7686 31.4739 19.3445C31.4739 18.9203 31.129 18.5754 30.7048 18.5754Z" fill="#DF0C0C"/>
</svg>
