<svg width="282" height="254" viewBox="0 0 282 254" fill="none" xmlns="http://www.w3.org/2000/svg">
<rect x="0.109375" y="0.490234" width="281.332" height="253.199" rx="14.0666" fill="#E43535"/>
<path d="M110.194 76.9879H104.033V74.2449H113.106V104.46H110.194V76.9879ZM128.806 104.966C122.729 104.966 118.846 101.168 118.846 95.2182H121.885C121.885 99.5648 124.543 102.181 128.848 102.181C133.405 102.181 136.359 99.1428 136.359 94.6696C136.359 90.4496 133.616 87.1158 128.848 87.1158C126.063 87.1158 123.531 88.3818 121.885 90.1964L119.479 89.4368L123.109 74.2449H137.71V77.0301H125.303L123.024 86.525C124.712 85.1746 126.907 84.415 129.27 84.415C135.558 84.415 139.44 88.9304 139.44 94.5852C139.44 100.662 135.136 104.966 128.806 104.966ZM158.008 81.1657C158.008 85.5122 154.928 88.635 150.623 88.635C146.319 88.635 143.196 85.5122 143.196 81.1657C143.196 76.8191 146.319 73.6541 150.623 73.6541C154.928 73.6541 158.008 76.8191 158.008 81.1657ZM173.327 74.2449L150.37 104.46H147.332L170.246 74.2449H173.327ZM155.476 81.1657C155.476 78.1695 153.493 76.1017 150.623 76.1017C147.711 76.1017 145.728 78.1695 145.728 81.1657C145.728 84.1196 147.754 86.2296 150.623 86.2296C153.451 86.2296 155.476 84.1196 155.476 81.1657ZM177.505 97.5392C177.505 101.886 174.424 105.009 170.12 105.009C165.815 105.009 162.692 101.886 162.692 97.5392C162.692 93.1926 165.815 90.0276 170.12 90.0276C174.424 90.0276 177.505 93.1926 177.505 97.5392ZM174.973 97.5392C174.973 94.543 172.989 92.4752 170.12 92.4752C167.208 92.4752 165.224 94.543 165.224 97.5392C165.224 100.493 167.25 102.561 170.12 102.561C172.947 102.561 174.973 100.493 174.973 97.5392Z" fill="white"/>
<path d="M63.7644 132.616V150.903H73.0202V152.76H61.7388V132.616H63.7644ZM76.5872 135.402C75.7995 135.402 75.1524 134.755 75.1524 133.967C75.1524 133.179 75.7995 132.504 76.5872 132.504C77.3749 132.504 78.0501 133.179 78.0501 133.967C78.0501 134.755 77.3749 135.402 76.5872 135.402ZM75.6307 152.76V139.143H77.5718V152.76H75.6307ZM85.4179 152.76L79.8476 139.143H81.9294L85.4461 147.921C85.8118 148.906 86.1775 149.834 86.4307 150.734C86.6839 149.806 87.0497 148.906 87.4435 147.921L91.0164 139.143H93.0139L87.3591 152.76H85.4179ZM100.409 153.097C96.4136 153.097 93.741 150.228 93.741 145.952C93.741 141.703 96.3855 138.778 100.268 138.778C103.953 138.778 106.457 141.394 106.457 145.248V146.205H95.6259C95.7666 149.524 97.5108 151.438 100.437 151.438C102.659 151.438 104.094 150.481 104.6 148.68H106.457C105.726 151.55 103.616 153.097 100.409 153.097ZM100.268 140.437C97.7078 140.437 96.0198 142.125 95.6822 144.798H104.516C104.516 142.182 102.828 140.437 100.268 140.437ZM119.811 132.616V150.903H129.067V152.76H117.785V132.616H119.811ZM137.114 153.097C133.119 153.097 130.446 150.228 130.446 145.952C130.446 141.703 133.091 138.778 136.973 138.778C140.658 138.778 143.162 141.394 143.162 145.248V146.205H132.331C132.472 149.524 134.216 151.438 137.142 151.438C139.364 151.438 140.799 150.481 141.305 148.68H143.162C142.431 151.55 140.321 153.097 137.114 153.097ZM136.973 140.437C134.413 140.437 132.725 142.125 132.387 144.798H141.221C141.221 142.182 139.533 140.437 136.973 140.437ZM150.039 153.097C147.141 153.097 145.425 151.466 145.425 149.074C145.425 146.57 147.338 144.995 150.517 144.742L155.019 144.376V143.926C155.019 141.253 153.415 140.409 151.418 140.409C149.054 140.409 147.648 141.478 147.648 143.307H145.875C145.875 140.55 148.126 138.778 151.474 138.778C154.625 138.778 156.932 140.353 156.932 143.954V152.76H155.3L155.047 150.368C154.203 152.085 152.346 153.097 150.039 153.097ZM150.489 151.522C153.359 151.522 155.019 149.524 155.019 146.57V145.839L150.996 146.148C148.435 146.374 147.395 147.499 147.395 149.018C147.395 150.678 148.632 151.522 150.489 151.522ZM167.945 138.974V140.719H166.876C164.372 140.719 162.768 142.407 162.768 144.995V152.76H160.827V139.143H162.656L162.796 141.253C163.331 139.79 164.766 138.834 166.679 138.834C167.101 138.834 167.466 138.862 167.945 138.974ZM172.467 152.76H170.525V139.143H172.213L172.495 141.506C173.395 139.762 175.195 138.778 177.165 138.778C180.906 138.778 182.454 141 182.454 144.432V152.76H180.513V144.854C180.513 141.675 179.078 140.55 176.827 140.55C174.042 140.55 172.467 142.576 172.467 145.642V152.76ZM187.279 135.402C186.492 135.402 185.844 134.755 185.844 133.967C185.844 133.179 186.492 132.504 187.279 132.504C188.067 132.504 188.742 133.179 188.742 133.967C188.742 134.755 188.067 135.402 187.279 135.402ZM186.323 152.76V139.143H188.264V152.76H186.323ZM194.253 152.76H192.312V139.143H194L194.281 141.506C195.182 139.762 196.982 138.778 198.951 138.778C202.693 138.778 204.241 141 204.241 144.432V152.76H202.299V144.854C202.299 141.675 200.865 140.55 198.614 140.55C195.829 140.55 194.253 142.576 194.253 145.642V152.76ZM207.181 145.558C207.181 141.844 209.572 138.778 213.567 138.778C215.931 138.778 217.731 139.875 218.603 141.872L218.8 139.143H220.488V152.338C220.488 156.389 217.9 159.033 213.905 159.033C210.416 159.033 207.969 157.064 207.434 153.773H209.376C209.798 155.967 211.486 157.261 213.933 157.261C216.718 157.261 218.575 155.376 218.575 152.535V149.299C217.647 151.212 215.762 152.338 213.427 152.338C209.544 152.338 207.181 149.271 207.181 145.558ZM209.122 145.53C209.122 148.315 210.838 150.594 213.708 150.594C216.662 150.594 218.406 148.455 218.406 145.53C218.406 142.632 216.718 140.494 213.736 140.494C210.81 140.494 209.122 142.772 209.122 145.53Z" fill="white"/>
<path d="M74.4463 179.384H73.1734V178.268L78.1085 173.4H70.4491V171.971H80.1406V173.266L75.3618 178.022C78.3542 178.179 80.4979 180.077 80.4979 182.98C80.4979 186.151 78.1755 188.227 74.9375 188.227C71.7889 188.227 69.6675 186.285 69.6675 183.091H71.253C71.253 185.391 72.6821 186.776 74.9375 186.776C77.3269 186.776 78.8678 185.257 78.8678 182.935C78.8678 180.747 77.3046 179.384 74.4463 179.384ZM90.8304 187.937H89.2896V171.68H90.8304V179.027C91.5227 177.732 92.8402 176.861 94.649 176.861C97.485 176.861 98.7578 178.625 98.7578 181.35V187.959H97.217V181.685C97.217 179.161 96.0335 178.268 94.3587 178.268C92.0363 178.268 90.8304 179.987 90.8304 182.064V187.937ZM101.07 182.555C101.07 179.25 103.392 176.861 106.563 176.861C109.734 176.861 112.056 179.25 112.056 182.555C112.056 185.838 109.734 188.227 106.563 188.227C103.392 188.227 101.07 185.838 101.07 182.555ZM102.633 182.533C102.633 185.079 104.241 186.843 106.563 186.843C108.863 186.843 110.493 185.079 110.493 182.533C110.493 180.032 108.863 178.246 106.563 178.246C104.241 178.246 102.633 180.032 102.633 182.533ZM121.851 177.151H123.392V187.959H122.052L121.851 186.128C121.249 187.379 119.752 188.227 118.055 188.227C115.51 188.227 114.125 186.486 114.125 183.851V177.129H115.688V183.359C115.688 185.927 116.827 186.843 118.547 186.843C120.623 186.843 121.851 185.458 121.851 182.89V177.151ZM132.252 177.017V178.402H131.403C129.416 178.402 128.143 179.742 128.143 181.796V187.959H126.602V177.151H128.053L128.165 178.826C128.589 177.665 129.728 176.906 131.247 176.906C131.582 176.906 131.872 176.928 132.252 177.017ZM133.384 184.922H134.858C134.858 186.173 135.796 186.955 137.315 186.955C138.989 186.955 139.972 186.24 139.972 185.079C139.972 184.186 139.525 183.672 138.253 183.359L136.399 182.89C134.523 182.421 133.608 181.439 133.608 179.965C133.608 178.067 135.193 176.861 137.516 176.861C139.793 176.861 141.267 178.112 141.334 180.121H139.838C139.793 178.871 138.922 178.134 137.471 178.134C135.952 178.134 135.104 178.782 135.104 179.943C135.104 180.769 135.684 181.35 136.868 181.64L138.721 182.109C140.597 182.578 141.446 183.449 141.446 185.012C141.446 186.955 139.793 188.227 137.337 188.227C134.903 188.227 133.384 186.932 133.384 184.922ZM150.086 187.959H148.568L154.798 171.971H156.361L150.086 187.959ZM166.432 187.959L162.859 177.151H164.445L166.566 183.672C166.812 184.387 167.013 185.123 167.236 185.994C167.415 185.123 167.772 184.029 167.883 183.672L170.027 177.151H171.613L173.734 183.672C173.935 184.253 174.203 185.19 174.404 185.994C174.627 185.101 174.672 184.833 175.052 183.672L177.195 177.151H178.803L175.141 187.959H173.645L171.412 181.171C171.144 180.367 170.965 179.697 170.831 179.05C170.675 179.63 170.496 180.278 170.206 181.171L167.973 187.959H166.432ZM184.781 188.227C181.61 188.227 179.489 185.95 179.489 182.555C179.489 179.183 181.588 176.861 184.67 176.861C187.595 176.861 189.582 178.938 189.582 181.997V182.756H180.985C181.097 185.391 182.481 186.91 184.804 186.91C186.568 186.91 187.707 186.151 188.109 184.722H189.582C189.002 186.999 187.327 188.227 184.781 188.227ZM184.67 178.179C182.637 178.179 181.298 179.518 181.03 181.64H188.042C188.042 179.563 186.702 178.179 184.67 178.179ZM196.579 188.227C193.408 188.227 191.287 185.95 191.287 182.555C191.287 179.183 193.386 176.861 196.467 176.861C199.393 176.861 201.38 178.938 201.38 181.997V182.756H192.783C192.894 185.391 194.279 186.91 196.601 186.91C198.365 186.91 199.504 186.151 199.906 184.722H201.38C200.8 186.999 199.125 188.227 196.579 188.227ZM196.467 178.179C194.435 178.179 193.095 179.518 192.827 181.64H199.839C199.839 179.563 198.499 178.179 196.467 178.179ZM205.451 187.959H203.911V171.68H205.451V182.734L210.811 177.151H212.754L208.6 181.461L212.776 187.959H210.989L207.551 182.555L205.451 184.722V187.959Z" fill="white"/>
</svg>
