<svg width="282" height="254" viewBox="0 0 282 254" fill="none" xmlns="http://www.w3.org/2000/svg">
<rect x="0.402344" y="0.490234" width="281.332" height="253.199" rx="14.0666" fill="#EF9D0E"/>
<path d="M107.844 76.9879H101.683V74.2449H110.756V104.46H107.844V76.9879ZM116.621 89.3524C116.621 79.9841 121.221 73.6541 128.732 73.6541C136.202 73.6541 140.802 79.9841 140.802 89.3524C140.802 98.763 136.286 105.009 128.732 105.009C121.136 105.009 116.621 98.763 116.621 89.3524ZM119.617 89.3524C119.617 97.2016 122.951 102.266 128.732 102.266C134.514 102.266 137.848 97.2016 137.848 89.3524C137.848 81.4611 134.514 76.4393 128.732 76.4393C122.951 76.4393 119.617 81.4611 119.617 89.3524ZM159.944 81.1657C159.944 85.5122 156.864 88.635 152.559 88.635C148.255 88.635 145.132 85.5122 145.132 81.1657C145.132 76.8191 148.255 73.6541 152.559 73.6541C156.864 73.6541 159.944 76.8191 159.944 81.1657ZM175.263 74.2449L152.306 104.46H149.268L172.182 74.2449H175.263ZM157.412 81.1657C157.412 78.1695 155.429 76.1017 152.559 76.1017C149.647 76.1017 147.664 78.1695 147.664 81.1657C147.664 84.1196 149.69 86.2296 152.559 86.2296C155.387 86.2296 157.412 84.1196 157.412 81.1657ZM179.44 97.5392C179.44 101.886 176.36 105.009 172.056 105.009C167.751 105.009 164.628 101.886 164.628 97.5392C164.628 93.1926 167.751 90.0276 172.056 90.0276C176.36 90.0276 179.44 93.1926 179.44 97.5392ZM176.908 97.5392C176.908 94.543 174.925 92.4752 172.056 92.4752C169.144 92.4752 167.16 94.543 167.16 97.5392C167.16 100.493 169.186 102.561 172.056 102.561C174.883 102.561 176.908 100.493 176.908 97.5392Z" fill="white"/>
<path d="M65.7825 145.361H60.1278V152.76H58.1022V132.616H65.7825C69.6649 132.616 72.1125 135.148 72.1125 138.946C72.1125 142.604 69.6368 145.361 65.7825 145.361ZM65.5012 134.445H60.1278V143.532H65.3887C68.3145 143.532 70.0025 141.675 70.0025 138.918C70.0025 136.133 68.2864 134.445 65.5012 134.445ZM80.0678 153.097C76.0729 153.097 73.4003 150.228 73.4003 145.952C73.4003 141.703 76.0448 138.778 79.9272 138.778C83.6126 138.778 86.1165 141.394 86.1165 145.248V146.205H75.2852C75.4259 149.524 77.1701 151.438 80.096 151.438C82.3185 151.438 83.7533 150.481 84.2597 148.68H86.1165C85.385 151.55 83.275 153.097 80.0678 153.097ZM79.9272 140.437C77.367 140.437 75.6791 142.125 75.3415 144.798H84.1753C84.1753 142.182 82.4873 140.437 79.9272 140.437ZM94.9312 153.097C90.9363 153.097 88.2636 150.228 88.2636 145.952C88.2636 141.703 90.9081 138.778 94.7905 138.778C98.476 138.778 100.98 141.394 100.98 145.248V146.205H90.1485C90.2892 149.524 92.0335 151.438 94.9593 151.438C97.1818 151.438 98.6166 150.481 99.123 148.68H100.98C100.248 151.55 98.1384 153.097 94.9312 153.097ZM94.7905 140.437C92.2304 140.437 90.5424 142.125 90.2048 144.798H99.0386C99.0386 142.182 97.3506 140.437 94.7905 140.437ZM111.201 138.974V140.719H110.132C107.628 140.719 106.025 142.407 106.025 144.995V152.76H104.083V139.143H105.912L106.053 141.253C106.587 139.79 108.022 138.834 109.935 138.834C110.357 138.834 110.723 138.862 111.201 138.974ZM124.032 132.616V150.903H133.288V152.76H122.006V132.616H124.032ZM141.335 153.097C137.34 153.097 134.667 150.228 134.667 145.952C134.667 141.703 137.311 138.778 141.194 138.778C144.879 138.778 147.383 141.394 147.383 145.248V146.205H136.552C136.693 149.524 138.437 151.438 141.363 151.438C143.585 151.438 145.02 150.481 145.526 148.68H147.383C146.652 151.55 144.542 153.097 141.335 153.097ZM141.194 140.437C138.634 140.437 136.946 142.125 136.608 144.798H145.442C145.442 142.182 143.754 140.437 141.194 140.437ZM154.26 153.097C151.362 153.097 149.646 151.466 149.646 149.074C149.646 146.57 151.559 144.995 154.738 144.742L159.24 144.376V143.926C159.24 141.253 157.636 140.409 155.638 140.409C153.275 140.409 151.869 141.478 151.869 143.307H150.096C150.096 140.55 152.347 138.778 155.695 138.778C158.846 138.778 161.153 140.353 161.153 143.954V152.76H159.521L159.268 150.368C158.424 152.085 156.567 153.097 154.26 153.097ZM154.71 151.522C157.58 151.522 159.24 149.524 159.24 146.57V145.839L155.216 146.148C152.656 146.374 151.615 147.499 151.615 149.018C151.615 150.678 152.853 151.522 154.71 151.522ZM172.166 138.974V140.719H171.097C168.593 140.719 166.989 142.407 166.989 144.995V152.76H165.048V139.143H166.877L167.017 141.253C167.552 139.79 168.987 138.834 170.9 138.834C171.322 138.834 171.687 138.862 172.166 138.974ZM176.687 152.76H174.746V139.143H176.434L176.716 141.506C177.616 139.762 179.416 138.778 181.386 138.778C185.127 138.778 186.675 141 186.675 144.432V152.76H184.734V144.854C184.734 141.675 183.299 140.55 181.048 140.55C178.263 140.55 176.687 142.576 176.687 145.642V152.76ZM191.5 135.402C190.712 135.402 190.065 134.755 190.065 133.967C190.065 133.179 190.712 132.504 191.5 132.504C192.288 132.504 192.963 133.179 192.963 133.967C192.963 134.755 192.288 135.402 191.5 135.402ZM190.544 152.76V139.143H192.485V152.76H190.544ZM198.474 152.76H196.533V139.143H198.221L198.502 141.506C199.403 139.762 201.203 138.778 203.172 138.778C206.914 138.778 208.461 141 208.461 144.432V152.76H206.52V144.854C206.52 141.675 205.085 140.55 202.835 140.55C200.05 140.55 198.474 142.576 198.474 145.642V152.76ZM211.402 145.558C211.402 141.844 213.793 138.778 217.788 138.778C220.151 138.778 221.952 139.875 222.824 141.872L223.021 139.143H224.709V152.338C224.709 156.389 222.121 159.033 218.126 159.033C214.637 159.033 212.19 157.064 211.655 153.773H213.596C214.018 155.967 215.706 157.261 218.154 157.261C220.939 157.261 222.796 155.376 222.796 152.535V149.299C221.868 151.212 219.983 152.338 217.648 152.338C213.765 152.338 211.402 149.271 211.402 145.558ZM213.343 145.53C213.343 148.315 215.059 150.594 217.929 150.594C220.883 150.594 222.627 148.455 222.627 145.53C222.627 142.632 220.939 140.494 217.957 140.494C215.031 140.494 213.343 142.772 213.343 145.53Z" fill="white"/>
<path d="M80.7109 187.959H70.1708V186.687L75.2845 182.22C78.2322 179.652 78.9914 178.536 78.9914 176.638C78.9914 174.472 77.6962 173.154 75.5748 173.154C73.3641 173.154 71.9126 174.762 71.8456 177.241H70.2378C70.3271 173.891 72.4485 171.68 75.5971 171.68C78.6118 171.68 80.6216 173.623 80.6216 176.548C80.6216 178.871 79.572 180.412 76.3787 183.203L72.6495 186.463H80.7109V187.959ZM91.047 187.937H89.5062V171.68H91.047V179.027C91.7393 177.732 93.0568 176.861 94.8656 176.861C97.7016 176.861 98.9745 178.625 98.9745 181.35V187.959H97.4336V181.685C97.4336 179.161 96.2501 178.268 94.5753 178.268C92.2529 178.268 91.047 179.987 91.047 182.064V187.937ZM101.286 182.555C101.286 179.25 103.609 176.861 106.78 176.861C109.951 176.861 112.273 179.25 112.273 182.555C112.273 185.838 109.951 188.227 106.78 188.227C103.609 188.227 101.286 185.838 101.286 182.555ZM102.849 182.533C102.849 185.079 104.457 186.843 106.78 186.843C109.08 186.843 110.71 185.079 110.71 182.533C110.71 180.032 109.08 178.246 106.78 178.246C104.457 178.246 102.849 180.032 102.849 182.533ZM122.068 177.151H123.609V187.959H122.269L122.068 186.128C121.465 187.379 119.969 188.227 118.272 188.227C115.726 188.227 114.342 186.486 114.342 183.851V177.129H115.905V183.359C115.905 185.927 117.044 186.843 118.763 186.843C120.84 186.843 122.068 185.458 122.068 182.89V177.151ZM132.468 177.017V178.402H131.62C129.632 178.402 128.359 179.742 128.359 181.796V187.959H126.819V177.151H128.27L128.382 178.826C128.806 177.665 129.945 176.906 131.463 176.906C131.798 176.906 132.089 176.928 132.468 177.017ZM133.601 184.922H135.075C135.075 186.173 136.013 186.955 137.531 186.955C139.206 186.955 140.189 186.24 140.189 185.079C140.189 184.186 139.742 183.672 138.469 183.359L136.616 182.89C134.74 182.421 133.824 181.439 133.824 179.965C133.824 178.067 135.41 176.861 137.732 176.861C140.01 176.861 141.484 178.112 141.551 180.121H140.055C140.01 178.871 139.139 178.134 137.688 178.134C136.169 178.134 135.321 178.782 135.321 179.943C135.321 180.769 135.901 181.35 137.085 181.64L138.938 182.109C140.814 182.578 141.662 183.449 141.662 185.012C141.662 186.955 140.01 188.227 137.554 188.227C135.12 188.227 133.601 186.932 133.601 184.922ZM150.303 187.959H148.785L155.015 171.971H156.578L150.303 187.959ZM166.649 187.959L163.076 177.151H164.661L166.783 183.672C167.028 184.387 167.229 185.123 167.453 185.994C167.631 185.123 167.988 184.029 168.1 183.672L170.244 177.151H171.829L173.951 183.672C174.152 184.253 174.42 185.19 174.621 185.994C174.844 185.101 174.889 184.833 175.268 183.672L177.412 177.151H179.02L175.358 187.959H173.861L171.628 181.171C171.36 180.367 171.182 179.697 171.048 179.05C170.891 179.63 170.713 180.278 170.423 181.171L168.189 187.959H166.649ZM184.998 188.227C181.827 188.227 179.705 185.95 179.705 182.555C179.705 179.183 181.805 176.861 184.886 176.861C187.812 176.861 189.799 178.938 189.799 181.997V182.756H181.202C181.313 185.391 182.698 186.91 185.02 186.91C186.784 186.91 187.923 186.151 188.325 184.722H189.799C189.218 186.999 187.544 188.227 184.998 188.227ZM184.886 178.179C182.854 178.179 181.514 179.518 181.246 181.64H188.258C188.258 179.563 186.918 178.179 184.886 178.179ZM196.796 188.227C193.625 188.227 191.503 185.95 191.503 182.555C191.503 179.183 193.602 176.861 196.684 176.861C199.609 176.861 201.597 178.938 201.597 181.997V182.756H192.999C193.111 185.391 194.496 186.91 196.818 186.91C198.582 186.91 199.721 186.151 200.123 184.722H201.597C201.016 186.999 199.341 188.227 196.796 188.227ZM196.684 178.179C194.652 178.179 193.312 179.518 193.044 181.64H200.056C200.056 179.563 198.716 178.179 196.684 178.179ZM205.668 187.959H204.127V171.68H205.668V182.734L211.027 177.151H212.97L208.817 181.461L212.993 187.959H211.206L207.767 182.555L205.668 184.722V187.959Z" fill="white"/>
</svg>
