<svg width="282" height="254" viewBox="0 0 282 254" fill="none" xmlns="http://www.w3.org/2000/svg">
<rect x="0.109375" y="0.208984" width="281.332" height="253.199" rx="14.0666" fill="#52B2EE"/>
<path d="M97.0784 73.9636H117.63V76.7488L105.729 104.179H102.607L114.549 76.7488H97.0784V73.9636ZM119.543 89.0712C119.543 79.7028 124.142 73.3728 131.654 73.3728C139.123 73.3728 143.723 79.7028 143.723 89.0712C143.723 98.4817 139.208 104.727 131.654 104.727C124.058 104.727 119.543 98.4817 119.543 89.0712ZM122.539 89.0712C122.539 96.9203 125.873 101.984 131.654 101.984C137.435 101.984 140.769 96.9203 140.769 89.0712C140.769 81.1798 137.435 76.158 131.654 76.158C125.873 76.158 122.539 81.1798 122.539 89.0712ZM162.866 80.8844C162.866 85.231 159.785 88.3538 155.481 88.3538C151.176 88.3538 148.053 85.231 148.053 80.8844C148.053 76.5378 151.176 73.3728 155.481 73.3728C159.785 73.3728 162.866 76.5378 162.866 80.8844ZM178.184 73.9636L155.227 104.179H152.189L175.104 73.9636H178.184ZM160.334 80.8844C160.334 77.8882 158.35 75.8204 155.481 75.8204C152.569 75.8204 150.585 77.8882 150.585 80.8844C150.585 83.8384 152.611 85.9484 155.481 85.9484C158.308 85.9484 160.334 83.8384 160.334 80.8844ZM182.362 97.2579C182.362 101.605 179.281 104.727 174.977 104.727C170.673 104.727 167.55 101.605 167.55 97.2579C167.55 92.9114 170.673 89.7464 174.977 89.7464C179.281 89.7464 182.362 92.9114 182.362 97.2579ZM179.83 97.2579C179.83 94.2618 177.847 92.194 174.977 92.194C172.065 92.194 170.082 94.2618 170.082 97.2579C170.082 100.212 172.107 102.28 174.977 102.28C177.804 102.28 179.83 100.212 179.83 97.2579Z" fill="white"/>
<path d="M59.3073 152.479H53.1742V132.335H59.251C65.3278 132.335 69.379 136.386 69.379 142.407C69.379 148.427 65.3559 152.479 59.3073 152.479ZM59.1666 134.192H55.1998V150.622H59.2229C64.1462 150.622 67.2971 147.415 67.2971 142.407C67.2971 137.371 64.1462 134.192 59.1666 134.192ZM71.6593 145.67C71.6593 141.507 74.5852 138.496 78.5801 138.496C82.575 138.496 85.5008 141.507 85.5008 145.67C85.5008 149.806 82.575 152.816 78.5801 152.816C74.5852 152.816 71.6593 149.806 71.6593 145.67ZM73.6286 145.642C73.6286 148.849 75.6542 151.072 78.5801 151.072C81.4778 151.072 83.5315 148.849 83.5315 145.642C83.5315 142.491 81.4778 140.241 78.5801 140.241C75.6542 140.241 73.6286 142.491 73.6286 145.642ZM89.5621 135.12C88.7744 135.12 88.1273 134.473 88.1273 133.686C88.1273 132.898 88.7744 132.223 89.5621 132.223C90.3499 132.223 91.0251 132.898 91.0251 133.686C91.0251 134.473 90.3499 135.12 89.5621 135.12ZM88.6056 152.479V138.862H90.5468V152.479H88.6056ZM96.5361 152.479H94.5949V138.862H96.2829L96.5642 141.225C97.4645 139.481 99.265 138.496 101.234 138.496C104.976 138.496 106.523 140.719 106.523 144.151V152.479H104.582V144.573C104.582 141.394 103.147 140.269 100.897 140.269C98.1116 140.269 96.5361 142.294 96.5361 145.361V152.479ZM109.464 145.276C109.464 141.563 111.855 138.496 115.85 138.496C118.213 138.496 120.014 139.594 120.886 141.591L121.083 138.862H122.771V152.057C122.771 156.108 120.183 158.752 116.188 158.752C112.699 158.752 110.252 156.783 109.717 153.491H111.658C112.08 155.686 113.768 156.98 116.216 156.98C119.001 156.98 120.858 155.095 120.858 152.253V149.018C119.93 150.931 118.045 152.057 115.71 152.057C111.827 152.057 109.464 148.99 109.464 145.276ZM111.405 145.248C111.405 148.033 113.121 150.312 115.991 150.312C118.945 150.312 120.689 148.174 120.689 145.248C120.689 142.351 119.001 140.212 116.019 140.212C113.093 140.212 111.405 142.491 111.405 145.248ZM142.727 145.079H137.072V152.479H135.046V132.335H142.727C146.609 132.335 149.057 134.867 149.057 138.665C149.057 142.322 146.581 145.079 142.727 145.079ZM142.445 134.164H137.072V143.251H142.333C145.259 143.251 146.947 141.394 146.947 138.637C146.947 135.852 145.231 134.164 142.445 134.164ZM159.023 138.693V140.437H157.954C155.45 140.437 153.847 142.125 153.847 144.714V152.479H151.905V138.862H153.734L153.875 140.972C154.409 139.509 155.844 138.553 157.757 138.553C158.179 138.553 158.545 138.581 159.023 138.693ZM160.125 145.67C160.125 141.507 163.051 138.496 167.046 138.496C171.041 138.496 173.967 141.507 173.967 145.67C173.967 149.806 171.041 152.816 167.046 152.816C163.051 152.816 160.125 149.806 160.125 145.67ZM162.094 145.642C162.094 148.849 164.12 151.072 167.046 151.072C169.944 151.072 171.997 148.849 171.997 145.642C171.997 142.491 169.944 140.241 167.046 140.241C164.12 140.241 162.094 142.491 162.094 145.642ZM178.056 135.12C177.24 135.12 176.593 134.473 176.593 133.686C176.593 132.898 177.24 132.223 178.056 132.223C178.816 132.223 179.491 132.898 179.491 133.686C179.491 134.473 178.816 135.12 178.056 135.12ZM173.442 158.443L173.808 156.67C174.371 156.811 174.708 156.867 175.13 156.867C176.481 156.867 177.071 156.08 177.071 154.42V138.862H179.013V154.532C179.013 157.12 177.662 158.696 175.271 158.696C174.539 158.696 174.146 158.64 173.442 158.443ZM188.772 152.816C184.777 152.816 182.104 149.947 182.104 145.67C182.104 141.422 184.749 138.496 188.631 138.496C192.317 138.496 194.82 141.113 194.82 144.967V145.923H183.989C184.13 149.243 185.874 151.156 188.8 151.156C191.022 151.156 192.457 150.2 192.964 148.399H194.82C194.089 151.269 191.979 152.816 188.772 152.816ZM188.631 140.156C186.071 140.156 184.383 141.844 184.045 144.517H192.879C192.879 141.9 191.191 140.156 188.631 140.156ZM196.967 145.698C196.967 141.422 199.584 138.496 203.551 138.496C206.702 138.496 209.009 140.325 209.543 143.138H207.602C207.095 141.253 205.464 140.212 203.579 140.212C200.822 140.212 198.881 142.322 198.881 145.67C198.881 148.906 200.681 151.072 203.438 151.072C205.464 151.072 207.095 149.947 207.63 148.202H209.599C208.952 150.987 206.533 152.816 203.438 152.816C199.584 152.816 196.967 149.975 196.967 145.698ZM215.663 152.479H213.75V140.494H211.021V138.862H213.75V134.558H215.663V138.862H218.392V140.494H215.663V152.479ZM219.766 148.652H221.623C221.623 150.228 222.805 151.213 224.718 151.213C226.828 151.213 228.065 150.312 228.065 148.849C228.065 147.724 227.503 147.077 225.899 146.683L223.564 146.092C221.201 145.501 220.048 144.264 220.048 142.407C220.048 140.016 222.045 138.496 224.971 138.496C227.84 138.496 229.697 140.072 229.782 142.604H227.897C227.84 141.028 226.743 140.1 224.915 140.1C223.001 140.1 221.932 140.916 221.932 142.379C221.932 143.42 222.664 144.151 224.155 144.517L226.49 145.108C228.853 145.698 229.922 146.796 229.922 148.765C229.922 151.213 227.84 152.816 224.746 152.816C221.679 152.816 219.766 151.184 219.766 148.652Z" fill="white"/>
<path d="M67.8916 174.026H64.6057V172.564H69.4446V188.678H67.8916V174.026ZM84.1635 185.257H82.273V188.678H80.6975V185.257H72.235V183.817L80.1123 172.564H82.273V183.817H84.1635V185.257ZM73.9906 183.817H80.6975V174.229L73.9906 183.817ZM94.8608 188.656H93.3079V172.271H94.8608V179.676C95.5585 178.37 96.8864 177.492 98.7095 177.492C101.568 177.492 102.851 179.27 102.851 182.016V188.678H101.298V182.354C101.298 179.811 100.105 178.91 98.4169 178.91C96.0762 178.91 94.8608 180.643 94.8608 182.736V188.656ZM105.181 183.232C105.181 179.901 107.521 177.492 110.717 177.492C113.913 177.492 116.254 179.901 116.254 183.232C116.254 186.54 113.913 188.948 110.717 188.948C107.521 188.948 105.181 186.54 105.181 183.232ZM106.756 183.209C106.756 185.775 108.377 187.553 110.717 187.553C113.035 187.553 114.678 185.775 114.678 183.209C114.678 180.688 113.035 178.888 110.717 178.888C108.377 178.888 106.756 180.688 106.756 183.209ZM126.126 177.785H127.679V188.678H126.329L126.126 186.833C125.518 188.093 124.011 188.948 122.3 188.948C119.734 188.948 118.339 187.193 118.339 184.537V177.763H119.914V184.042C119.914 186.63 121.062 187.553 122.795 187.553C124.888 187.553 126.126 186.157 126.126 183.569V177.785ZM136.608 177.65V179.045H135.753C133.75 179.045 132.467 180.396 132.467 182.466V188.678H130.914V177.785H132.377L132.49 179.473C132.917 178.303 134.065 177.537 135.595 177.537C135.933 177.537 136.226 177.56 136.608 177.65ZM137.75 185.617H139.235C139.235 186.878 140.181 187.665 141.711 187.665C143.399 187.665 144.389 186.945 144.389 185.775C144.389 184.875 143.939 184.357 142.656 184.042L140.788 183.569C138.898 183.097 137.975 182.106 137.975 180.621C137.975 178.708 139.573 177.492 141.914 177.492C144.209 177.492 145.695 178.753 145.762 180.778H144.254C144.209 179.518 143.332 178.775 141.869 178.775C140.338 178.775 139.483 179.428 139.483 180.598C139.483 181.431 140.068 182.016 141.261 182.309L143.129 182.782C145.02 183.254 145.875 184.132 145.875 185.707C145.875 187.665 144.209 188.948 141.734 188.948C139.28 188.948 137.75 187.643 137.75 185.617ZM154.583 188.678H153.053L159.332 172.564H160.908L154.583 188.678ZM171.058 188.678L167.457 177.785H169.055L171.193 184.357C171.44 185.077 171.643 185.82 171.868 186.698C172.048 185.82 172.408 184.717 172.521 184.357L174.681 177.785H176.279L178.417 184.357C178.62 184.942 178.89 185.887 179.093 186.698C179.318 185.797 179.363 185.527 179.745 184.357L181.906 177.785H183.526L179.835 188.678H178.327L176.077 181.836C175.807 181.026 175.627 180.351 175.492 179.698C175.334 180.283 175.154 180.936 174.861 181.836L172.611 188.678H171.058ZM189.551 188.948C186.356 188.948 184.217 186.653 184.217 183.232C184.217 179.833 186.333 177.492 189.439 177.492C192.387 177.492 194.39 179.586 194.39 182.669V183.434H185.725C185.838 186.09 187.233 187.62 189.574 187.62C191.352 187.62 192.5 186.855 192.905 185.415H194.39C193.805 187.71 192.117 188.948 189.551 188.948ZM189.439 178.82C187.391 178.82 186.04 180.171 185.77 182.309H192.837C192.837 180.216 191.487 178.82 189.439 178.82ZM201.442 188.948C198.246 188.948 196.108 186.653 196.108 183.232C196.108 179.833 198.224 177.492 201.33 177.492C204.278 177.492 206.281 179.586 206.281 182.669V183.434H197.616C197.729 186.09 199.124 187.62 201.465 187.62C203.243 187.62 204.39 186.855 204.796 185.415H206.281C205.696 187.71 204.008 188.948 201.442 188.948ZM201.33 178.82C199.281 178.82 197.931 180.171 197.661 182.309H204.728C204.728 180.216 203.378 178.82 201.33 178.82ZM210.384 188.678H208.831V172.271H210.384V183.412L215.786 177.785H217.744L213.558 182.129L217.767 188.678H215.966L212.5 183.232L210.384 185.415V188.678Z" fill="white"/>
</svg>
