<svg width="101" height="101" viewBox="0 0 101 101" fill="none" xmlns="http://www.w3.org/2000/svg">
<path d="M57.362 36.0343C57.362 35.0384 57.1658 34.0523 56.7847 33.1322C56.4036 32.2122 55.845 31.3762 55.1409 30.672C54.4367 29.9679 53.6007 29.4093 52.6807 29.0282C51.7606 28.6471 50.7745 28.4509 49.7786 28.4509C48.7828 28.4509 47.7967 28.6471 46.8766 29.0282C45.9566 29.4093 45.1206 29.9679 44.4164 30.672C43.7122 31.3762 43.1537 32.2122 42.7726 33.1322C42.3915 34.0523 42.1953 35.0384 42.1953 36.0343L49.7786 36.0343H57.362Z" fill="#39B34A"/>
<path d="M38.6966 75.7013C38.6966 74.7054 38.4854 73.7193 38.075 72.7992C37.6646 71.8792 37.063 71.0432 36.3047 70.339C35.5463 69.6348 34.646 69.0763 33.6552 68.6952C32.6644 68.3141 31.6024 68.1179 30.5299 68.1179C29.4575 68.1179 28.3955 68.3141 27.4047 68.6952C26.4139 69.0763 25.5136 69.6348 24.7552 70.339C23.9969 71.0432 23.3953 71.8792 22.9849 72.7992C22.5745 73.7193 22.3633 74.7054 22.3633 75.7013L30.5299 75.7013H38.6966Z" fill="#39B34A"/>
<path d="M79.5286 76.2846C79.5286 75.2121 79.3174 74.1502 78.907 73.1593C78.4966 72.1685 77.895 71.2682 77.1367 70.5099C76.3783 69.7515 75.4781 69.15 74.4872 68.7396C73.4964 68.3292 72.4344 68.1179 71.362 68.1179C70.2895 68.1179 69.2276 68.3292 68.2367 68.7396C67.2459 69.15 66.3456 69.7515 65.5873 70.5099C64.8289 71.2682 64.2274 72.1685 63.817 73.1593C63.4065 74.1502 63.1953 75.2121 63.1953 76.2846L71.362 76.2846H79.5286Z" fill="#39B34A"/>
<path d="M57.7052 36.7646L57.7295 36.7643C58.1907 36.761 58.5631 36.387 58.5653 35.9263C58.5671 35.562 58.4057 35.2254 58.284 34.9457C57.6303 33.1562 56.9798 31.5062 55.5259 30.1513C53.9742 28.7055 51.9529 27.9251 49.9906 27.9148C47.4595 27.9159 45.6124 29.2464 44.4208 30.2865C42.1842 31.9306 40.7036 34.0779 40.0152 36.7105C39.9571 36.9329 40.1309 37.1514 40.3607 37.1504C58.8481 37.1982 57.4601 37.0748 57.7052 36.7646ZM56.5416 35.0894L42.8461 35.221C43.263 33.9508 44.0807 32.832 45.449 31.6233C46.934 30.3116 48.4993 29.4534 50.4562 29.6193C51.9002 29.7477 53.2932 30.374 54.3775 31.3842C55.4659 32.3986 56.0162 33.679 56.5416 35.0894Z" fill="#242B42"/>
<path d="M48.85 27.0376L48.8196 27.0253L48.7879 27.0171C47.8739 26.7803 47.1815 26.2706 46.775 25.6117C46.3702 24.9557 46.227 24.1171 46.4713 23.1744L46.4786 23.1463L46.4826 23.1175C46.7502 21.1862 48.2482 20.0795 49.9175 19.8994C51.5938 19.7186 53.3427 20.4843 54.0783 22.2281C55.3343 25.2081 52.2067 28.396 48.85 27.0376Z" stroke="#242B42"/>
<path d="M30.2205 66.2338C32.7225 66.7227 35.0014 65.4163 35.8819 63.385C37.5652 59.5003 33.4912 55.5591 29.3698 57.0835C28.0793 57.5612 27.0255 58.4978 26.4871 59.8937C24.8889 62.9654 26.8809 66.092 30.2205 66.2338ZM34.3359 62.7148C33.213 65.308 29.1923 65.3097 28.0794 62.6709C27.4303 61.13 28.1942 59.3149 29.9545 58.663C32.7144 57.6432 35.4237 60.2053 34.3359 62.7148Z" fill="#242B42"/>
<path d="M37.0744 69.2503C35.5201 67.8014 33.5184 66.903 31.4403 66.721C29.2208 66.5216 27.2734 67.2472 25.4893 68.5228C22.7497 70.0426 20.1487 72.964 19.1538 76.7691C19.0862 77.0274 19.2881 77.2809 19.5551 77.2796C40.4662 77.2267 39.1276 77.1908 39.3638 77.1018C39.5381 77.0361 39.6772 76.8697 39.786 76.6829C40.2164 76.6468 40.5576 76.2977 40.5608 75.8589C40.563 75.5035 40.4231 75.1844 40.3107 74.9277C39.6159 73.3266 39.0922 71.1305 37.0744 69.2503ZM38.5409 75.0198L22.2552 75.1767C22.7274 73.6027 23.7014 72.2371 25.3741 70.7596C27.1058 69.23 28.9719 68.1945 31.2917 68.3992C32.999 68.5483 34.6448 69.2887 35.926 70.4832C37.254 71.7208 37.9014 73.2874 38.5409 75.0198Z" fill="#242B42"/>
<path d="M70.994 66.9081C74.9906 67.6937 78.1473 63.9383 76.6763 60.4517C74.9849 56.4429 68.8821 56.4035 67.2658 60.5668C65.6588 63.6539 67.6778 66.7647 70.994 66.9081ZM75.1138 63.3891C73.9891 65.9865 69.9695 65.9818 68.8573 63.3463C68.1973 61.7801 68.9963 59.9813 70.7324 59.3384C73.5021 58.3163 76.2012 60.8806 75.1138 63.3891Z" fill="#242B42"/>
<path d="M77.8556 69.9262C76.1542 68.3406 73.8891 67.3866 71.5196 67.365C69.6948 67.3658 67.9968 67.9625 66.2664 69.2006C63.5291 70.7205 60.9296 73.6404 59.935 77.4444C59.8675 77.7027 60.0693 77.9562 60.3363 77.9551C81.8522 78.1001 80.274 77.8614 80.5669 77.3588C80.9975 77.3229 81.3389 76.9735 81.342 76.5348C81.3442 76.1783 81.2038 75.858 81.0908 75.6002C80.2813 73.436 79.5696 71.5222 77.8556 69.9262ZM79.3227 75.6957L63.0365 75.8525C63.5087 74.2785 64.4827 72.9118 66.1554 71.4344C67.8967 69.8962 69.757 68.8708 72.0724 69.0739C73.7802 69.2242 75.4261 69.9646 76.7072 71.159C78.0351 72.3947 78.6859 73.9697 79.3227 75.6957Z" fill="#242B42"/>
<path d="M54.2266 46.088C54.2328 46.497 54.4796 46.85 55.0202 46.9195C57.9751 47.3604 60.5593 47.4372 62.9203 47.1531C66.8528 46.6798 67.3554 44.0803 67.2645 40.4773C66.7622 20.5787 67.0011 20.0639 65.8558 18.1006C65.2016 16.9792 63.9254 16.139 62.6804 16.1346C61.5251 15.876 48.0298 15.1885 37.4786 16.0065C35.751 16.1392 34.364 17.563 34.2527 19.3169C34.0894 21.8863 34.1365 24.4916 34.3683 27.0787C32.87 26.8771 31.6933 26.7133 30.3446 27.6157C27.9533 29.1967 27.0549 32.0936 28.3168 34.73C28.5465 35.8181 28.9997 36.8182 30.0965 37.591C31.2674 38.4163 32.8493 38.6895 34.2683 38.3553C34.1008 40.853 34.1139 43.0585 34.3163 45.0328C34.4271 46.1045 35.2443 46.9546 36.3033 47.1026C40.1587 47.6353 45.598 46.9779 45.9146 46.8756C46.0271 46.8181 46.0995 46.7859 46.1611 46.7379C46.7806 46.6274 47.3527 46.4826 48.038 46.4198C48.2336 45.3019 48.7258 43.8311 49.4637 42.9685C50.2017 42.1061 51.3297 41.5278 52.4585 41.6474C52.4673 41.6483 52.4757 41.6515 52.4846 41.6524C53.7665 42.7237 54.2012 44.416 54.2266 46.088ZM36.5353 45.4332C36.2506 45.3937 36.0225 45.1524 35.9923 44.8606C35.7461 42.4585 35.7932 39.5683 36.1338 36.2689C36.1879 35.7437 35.6954 35.2891 35.202 35.3453C34.8102 35.4072 34.8096 35.3417 33.5332 35.6426C32.4023 35.9124 31.7283 36.0375 31.0169 35.489C28.9756 33.9152 28.7646 30.6799 31.278 29.0186C32.5755 28.1484 33.9847 28.9198 35.3298 28.8407C35.8224 28.8137 36.1818 28.3696 36.1333 27.9163C35.8229 25.0919 35.756 22.2345 35.9342 19.4244C35.9929 18.5019 36.7119 17.7549 37.608 17.6869C44.7151 17.1363 52.7113 17.1506 62.05 17.7352C62.9039 17.7878 63.5894 18.4712 63.6454 19.3234C64.2454 28.4691 64.2338 36.7307 63.6103 44.5787C63.573 45.0438 63.1984 45.4233 62.7191 45.4804C60.7063 45.725 58.4128 45.6778 55.8779 45.3389C55.6074 41.8905 53.6468 39.8151 51.5963 39.3686C48.8635 38.7819 45.5966 40.8596 44.9033 45.3136C41.4015 45.7008 38.7301 45.737 36.5353 45.4332Z" fill="#242B42"/>
<path d="M49.5908 65.3748C48.6813 64.7847 47.8137 64.6791 47.0013 64.7245C46.9315 63.4482 47.0594 62.164 47.0986 60.8831C47.1438 59.4068 47.0392 57.8747 46.3584 56.5638C45.9486 55.7748 44.9472 54.7557 43.6958 54.3198C43.26 54.082 42.7748 53.9237 42.2495 53.8906C40.4045 53.7807 38.4561 53.7242 36.4716 53.6937C36.7067 51.9464 36.1361 50.093 34.9172 48.8128C33.9347 47.7808 31.7726 46.6046 30.2082 47.0308C28.2942 46.8839 26.3193 47.831 25.1516 49.6589C24.1867 51.1667 24.5371 52.6191 24.8595 53.9041C22.5323 54.0181 20.1396 54.1732 17.5679 54.382C15.8743 54.5246 14.5372 55.91 14.4583 57.6035C14.0151 66.8534 14.1758 75.1928 14.9502 83.0968C15.1939 85.6259 17.7303 85.6174 20.1055 85.6174C20.2193 85.6174 43.2336 85.2534 44.3745 84.8565C44.8895 84.8491 45.4051 84.7362 45.8305 84.4515C47.7464 83.1692 47.4082 78.253 46.8955 75.9787C50.8061 76.2906 52.7568 73.6954 52.2499 70.2809C52.3276 68.1747 51.2415 66.4273 49.5908 65.3748ZM17.5278 83.8109C17.0507 83.7659 16.6717 83.3974 16.6273 82.9334C15.8606 75.1106 15.7016 66.8512 16.1409 57.6836C16.1809 56.8302 16.8555 56.1326 17.7066 56.0602C23.0499 55.6288 25.9014 55.572 26.1691 55.4819C27.7642 54.9576 25.3502 52.4739 26.5715 50.566C28.127 48.1321 31.3084 47.9541 33.0068 50.6318C33.7729 51.8147 33.4584 52.9311 33.3858 54.4654C33.3854 54.4722 33.3888 54.478 33.3887 54.4849C33.3885 54.4918 33.3847 54.4977 33.3847 54.5049C33.3847 54.5273 33.4384 54.7916 33.4469 54.8131C33.8083 55.725 34.2313 55.1005 42.1464 55.5721C43.0519 55.6292 43.7703 56.352 43.8537 57.281C44.3006 62.933 43.6235 65.5488 43.8729 66.1654C44.1865 66.9381 45.1404 66.6806 46.0655 66.532C47.0977 66.3686 47.8419 66.2479 48.6793 66.7908C51.2126 68.4102 51.0869 71.6379 49.0588 73.2525C47.9903 74.1099 46.7933 73.3592 45.1929 73.2163C45.0806 73.2388 43.8117 72.9785 43.9524 74.1311C44.3506 77.3877 44.4498 80.2768 44.248 82.714C44.2222 83.0036 43.9968 83.2482 43.7144 83.2932C41.7327 83.6076 19.0162 83.9665 17.5278 83.8109Z" fill="#242B42"/>
<path d="M81.9549 53.4108C81.6405 53.3041 81.3126 53.2276 80.9674 53.2131C78.7801 53.1215 76.5659 53.1744 74.361 53.3697C74.4538 51.8064 73.9216 50.2055 72.8692 49.042C72.178 48.2776 70.8247 47.2774 69.6567 47.2566C67.4262 46.5163 64.8533 47.3172 63.3731 49.3269C62.2991 50.7851 62.7253 52.1226 63.1108 53.7124C60.12 53.518 57.5269 53.5481 55.2607 53.8306C54.2088 53.9612 53.3566 54.8156 53.2332 55.862C52.943 58.3442 53.0681 61.3431 53.6302 65.3203C53.6885 65.6718 54.0057 65.9912 54.3907 66.0264C54.3912 66.0264 54.3915 66.0267 54.392 66.0267C54.3929 66.0269 54.3926 66.0266 54.398 66.0278C56.2067 66.1789 57.8752 66.6923 58.9541 68.1509C59.5313 69.4674 59.1625 70.9932 58.2461 71.9187C57.3801 72.7932 55.7893 73.3669 54.6085 73.02C54.4682 73.3707 54.2588 73.6755 54.0823 74.0022C53.954 74.1269 53.877 74.2915 53.8484 74.4751C53.8406 74.5079 53.8231 74.5361 53.8189 74.5701C53.441 77.5361 53.4202 80.1203 53.7553 82.4731C53.9368 83.7432 54.9843 84.7161 56.2468 84.7896C64.7472 85.2813 73.2243 85.0202 81.7407 84.2774C82.5046 84.2105 83.1859 83.8812 83.7193 83.3939C86.7076 81.6805 86.8974 78.2349 86.9075 74.7818C86.9482 60.9867 87.2079 59.116 86.0053 56.6035C85.449 55.4411 83.5534 53.3387 81.9549 53.4108ZM56.3439 83.107C55.8788 83.0807 55.4916 82.7144 55.4236 82.2361C55.1373 80.2256 55.1351 77.9276 55.4176 75.3939C63.47 74.589 63.2767 65.515 55.207 64.422C54.7441 60.9295 54.6492 58.2598 54.907 56.0584C54.9404 55.7721 55.1763 55.5385 55.4686 55.5023C60.0824 54.9266 63.8076 55.5361 64.2955 55.4348C65.2157 55.2602 64.8981 54.3132 64.9219 54.2003C64.7095 52.5857 63.9215 51.4228 64.7294 50.3262C66.276 48.2283 69.4981 47.9815 71.2042 50.4479C72.2099 51.8818 71.1968 53.5417 71.5023 54.6589C71.8773 56.0359 73.1872 54.5799 80.8972 54.8957C81.8196 54.9352 82.582 55.6383 82.6703 56.5322C83.3739 63.6344 83.5302 71.6284 83.1485 80.9703C83.1139 81.8248 82.4454 82.5246 81.5948 82.5992C72.459 83.3955 64.1996 83.5644 56.3439 83.107Z" fill="#242B42"/>
</svg>
