<svg width="64" height="50" viewBox="0 0 64 50" fill="none" xmlns="http://www.w3.org/2000/svg">
<path d="M53.2879 28.1094C54.7122 28.3326 55.1332 25.049 55.1265 14.1225C55.1118 2.55628 54.6877 0.00537268 52.99 0.336426C50.6609 0.820416 50.9938 27.6893 53.2879 28.1094Z" fill="#F6C673"/>
<path d="M2.38761 32.2903C2.02528 36.5889 2.71559 37.2038 11.9157 40.8034C21.4142 44.5313 23.282 44.8742 24.128 43.152C25.6493 40.0231 23.4504 38.2297 11.9316 33.0328C3.43118 29.2035 2.65503 29.1175 2.38761 32.2903Z" fill="#F6C673"/>
<path d="M19.1695 9.77084C18.868 12.8583 19.3873 14.0359 22.7443 17.9884C32.7471 29.6749 38.965 38.8162 39.4313 32.7947C39.6384 30.3383 38.0029 27.974 26.757 13.915C20.5035 6.17258 19.5999 5.64288 19.1695 9.77084Z" fill="#F6C673"/>
</svg>
