<svg width="101" height="101" viewBox="0 0 101 101" fill="none" xmlns="http://www.w3.org/2000/svg">
<path d="M69.8398 46.5343V30.2009L62.8398 31.9509L57.0065 36.6176L54.6732 41.8676L54.0898 47.7009L56.4232 55.8676L62.8398 62.2843L73.9232 63.4509L81.5065 58.7843L69.8398 46.5343Z" fill="#4175FF"/>
<path d="M27.362 47.1327C27.3726 47.1363 27.3835 47.1349 27.3941 47.1382C27.7223 49.5539 28.4402 52.1937 30.0195 54.463C34.4469 60.8286 45.8737 62.8201 48.5108 47.5766C51.7372 47.0662 51.8901 42.446 49.9513 41.3478C52.5754 32.2055 44.3453 24.5867 36.6773 28.9498C36.7753 28.5899 36.9113 28.2409 37.0944 27.9211C37.3276 27.5143 37.1872 26.9948 36.7804 26.7626C36.3692 26.5272 35.8529 26.6709 35.6219 27.0766C35.3414 27.566 35.1337 28.0892 34.9986 28.6307C34.881 28.5313 34.7643 28.4305 34.6314 28.3512C34.229 28.1124 33.7084 28.2439 33.4674 28.6463C33.2275 29.0487 33.3591 29.5694 33.7625 29.8103C33.8386 29.8557 33.8907 29.9325 33.9551 29.995C29.7619 29.6625 25.645 33.6273 26.6596 40.7692C25.3633 40.9769 24.4182 42.2275 24.5906 43.8462C24.752 45.3319 26.1548 46.7082 27.362 47.1327ZM31.4124 53.4924C29.7916 51.1643 28.9769 48.0772 28.8455 43.8435C29.5478 42.5464 30.3579 40.9546 30.9437 39.3039C35.6131 41.3214 40.403 40.9743 45.205 38.2615C45.232 38.3773 46.7751 44.8857 46.8062 45.0007C46.6305 47.3922 46.3341 49.8711 45.3753 52.1194C42.3847 59.1237 35.1402 58.8521 31.4124 53.4924ZM30.3732 32.8945C31.65 31.7449 33.5182 31.3535 34.9166 31.9339C35.2505 32.0765 35.6385 31.9859 35.8795 31.7139C37.6548 29.7064 41.0077 28.8586 43.5159 29.7794C47.9078 31.3954 50.0567 36.9524 47.91 42.0456C47.3878 39.9023 46.9794 38.5556 46.6145 36.757C46.4946 36.1739 45.8298 35.89 45.3266 36.2098C40.4107 39.3316 35.5268 39.7207 30.8121 37.3705C30.3305 37.1309 29.7645 37.3919 29.6182 37.8901C29.3145 38.9242 28.879 39.9655 28.4155 40.9466C27.9299 38.0266 28.1746 34.8783 30.3732 32.8945Z" fill="#242B42"/>
<path d="M56.064 72.7577C52.752 64.607 43.5445 59.574 35.2308 61.0145C20.8025 63.5165 18.2129 74.4614 15.2918 81.3659C15.0417 82.0098 13.8443 84.5052 14.7152 84.6179L17.116 84.7122C27.6894 85.5793 42.7137 85.6846 54.3106 85.5891C55.6229 85.5783 57.7337 86.3455 58.2153 85.1179C58.7153 85.1179 59.1997 84.6367 59.2153 84.6179C59.4674 84.3128 58.4065 82.5995 58.3269 82.2115C57.6849 79.095 57.309 75.8227 56.064 72.7577ZM39.5332 62.5226C39.2264 63.6924 37.6857 63.9996 36.963 63.5018C36.4595 63.1555 36.2328 62.9195 36.1587 62.6169C37.2767 62.47 38.4056 62.4312 39.5332 62.5226ZM37.8949 66.9331C38.6432 68.9741 39.3437 70.9778 40.2528 72.9943C39.6554 73.9097 38.8605 75.0151 38.1326 76.0243C37.3123 75.1554 36.1925 73.8698 35.5336 72.9313C36.2898 71.0794 37.1185 68.8997 37.8949 66.9331ZM34.4942 62.8991C34.7224 64.0326 35.79 64.9423 36.7375 65.2632C35.5906 68.1144 34.7496 70.381 33.7926 72.7024C33.6876 72.9567 33.7119 73.2441 33.8578 73.4774C34.7455 74.8934 36.8381 77.1861 37.6661 77.9677C38.0534 78.3361 38.6886 78.2567 38.9727 77.7941C38.9781 77.7853 41.2531 74.6001 41.9287 73.526C42.0558 73.3248 42.0923 73.0794 42.0293 72.8495C41.775 72.0038 42.521 74.3886 39.049 65.189C40.2432 64.7649 40.9827 63.9503 41.2135 62.7346C47.4836 63.8882 52.5104 68.5169 54.4899 73.3967C55.604 76.1385 55.9969 79.2004 56.5692 82.0822C46.0936 82.624 27.4238 82.596 17.139 81.3404C19.6996 75.0148 21.7906 65.8252 34.4942 62.8991Z" fill="#242B42"/>
<path d="M76.3446 30.4235V24.2473L81.0127 19.5793C81.9397 19.938 82.8519 19.6515 83.3963 19.0009C84.0762 18.1895 84.0054 16.8895 83.2415 16.1632C81.77 14.7629 79.1198 16.2633 79.8331 18.3578C74.8846 23.4266 74.6467 23.2592 74.6467 23.8958V29.9058C73.3162 29.5749 71.9327 29.3799 70.5012 29.3799C66.5921 29.3799 62.9952 30.7054 60.1029 32.91L56.7242 29.1033C57.1376 28.3039 56.9984 27.247 56.3393 26.6185C56.3393 26.6185 56.3382 26.6185 56.3382 26.6174C55.1285 25.4639 53.0365 26.2608 52.8196 27.9097C52.6204 29.4108 54.0389 30.4444 55.3734 30.1387L58.8041 34.004C48.4251 43.6606 53.8596 60.9034 66.0403 64.2422C67.0203 64.5108 68.0104 64.6757 69.0011 64.7753V67.9612L64.8218 72.2011C64.3554 71.999 63.8191 71.9646 63.3059 72.1464C62.5299 72.4206 61.9827 73.0772 61.8798 73.8588C61.6095 75.8987 64.2641 76.9447 65.5533 75.4042C65.9967 74.8749 66.1151 74.1398 65.9357 73.4897C70.3053 68.9425 70.6991 68.9505 70.6991 68.3094V64.8629C83.3078 64.9108 91.9599 51.9286 86.5781 40.5101C84.8039 35.832 81.0544 32.1322 76.3446 30.4235ZM81.3695 35.5414L70.6063 44.7795V31.0831C74.795 31.1115 78.5922 32.8079 81.3695 35.5414ZM81.5019 57.5006L80.6668 56.6656C80.9132 56.3266 80.5952 57.4024 83.8432 38.7212C87.4721 44.8535 86.4426 52.5216 81.5019 57.5006ZM72.3411 45.5283C72.1765 46.3237 72.0423 47.1232 71.9282 47.9269L70.8281 46.8269L72.3411 45.5283ZM73.4893 48.9187C73.8899 45.6131 74.4289 44.2371 74.4818 43.6909L77.2392 41.3243C76.5388 44.7381 76.0171 48.2052 75.681 51.6797L73.3172 49.316C73.403 49.2012 73.4709 49.0714 73.4893 48.9187ZM79.2764 39.5758L82.4394 36.861L79.2793 55.2781L77.2346 53.2333C77.9655 44.3057 79.3729 40.2348 79.2764 39.5758ZM68.9083 31.1596V46.9566C68.9083 47.1821 68.9978 47.3976 69.157 47.5568L80.238 58.6378C77.5738 60.7942 74.1878 62.0924 70.5012 62.0924C61.9506 62.0924 54.994 55.1358 54.994 46.5851C54.994 38.5723 61.1032 31.9598 68.9083 31.1596Z" fill="#242B42"/>
</svg>
