<svg width="52" height="52" viewBox="0 0 52 52" fill="none" xmlns="http://www.w3.org/2000/svg">
<g clip-path="url(#clip0_432_24818)">
<path fill-rule="evenodd" clip-rule="evenodd" d="M26 0.641113C11.6415 0.641113 0 12.2804 0 26.6411C0 38.1288 7.449 47.8744 17.7797 51.3129C19.0797 51.5534 19.5563 50.7496 19.5563 50.0628C19.5563 49.4431 19.5325 47.3956 19.5217 45.2224C12.2893 46.7954 10.7618 42.1544 10.7618 42.1544C9.57883 39.1493 7.87583 38.3498 7.87583 38.3498C5.51633 36.7356 8.0535 36.7703 8.0535 36.7703C10.6643 36.9544 12.038 39.4504 12.038 39.4504C14.3563 43.4241 18.1198 42.2758 19.604 41.6106C19.838 39.9293 20.5118 38.7831 21.255 38.1331C15.4808 37.4766 9.40983 35.2471 9.40983 25.2848C9.40983 22.4464 10.426 20.1259 12.09 18.3059C11.8192 17.6494 10.9287 15.0061 12.3413 11.4246C12.3413 11.4246 14.5253 10.7269 19.4935 14.0896C21.567 13.5133 23.79 13.2251 26 13.2143C28.21 13.2251 30.4352 13.5133 32.513 14.0896C37.4747 10.7248 39.6565 11.4246 39.6565 11.4246C41.0713 15.0061 40.1808 17.6494 39.9122 18.3059C41.5783 20.1259 42.588 22.4464 42.588 25.2848C42.588 35.2709 36.5062 37.4701 30.7168 38.1136C31.6485 38.9196 32.4805 40.5034 32.4805 42.9279C32.4805 46.4076 32.4502 49.2069 32.4502 50.0628C32.4502 50.7539 32.9182 51.5664 34.2355 51.3108C44.5618 47.8679 52.0022 38.1266 52.0022 26.6433C52 12.2826 40.3585 0.641113 26 0.641113Z" fill="#35434C"/>
<path d="M9.84782 37.9727C9.79148 38.1027 9.58782 38.1417 9.40148 38.0529C9.21298 37.9684 9.10682 37.7907 9.16748 37.6629C9.22382 37.5307 9.42748 37.4939 9.61598 37.5827C9.80448 37.665 9.91282 37.8427 9.84782 37.9727Z" fill="#35434C"/>
<path d="M10.9004 39.1471C10.7769 39.262 10.5342 39.2078 10.3696 39.028C10.1984 38.846 10.1681 38.6033 10.2937 38.4885C10.4216 38.3736 10.6556 38.4278 10.8267 38.6098C10.9979 38.7896 11.0304 39.0301 10.9004 39.1471Z" fill="#35434C"/>
<path d="M11.925 40.6443C11.7647 40.7548 11.5047 40.6508 11.3443 40.4212C11.184 40.1893 11.184 39.912 11.3487 39.8015C11.509 39.691 11.7668 39.7907 11.9293 40.0203C12.0875 40.2543 12.0875 40.5317 11.925 40.6443Z" fill="#35434C"/>
<path d="M13.3295 42.0917C13.1865 42.2498 12.8831 42.2065 12.6621 41.992C12.4346 41.7818 12.3718 41.485 12.5148 41.3268C12.66 41.1687 12.9655 41.2142 13.1886 41.4265C13.414 41.6367 13.4811 41.9357 13.3295 42.0917Z" fill="#35434C"/>
<path d="M15.2687 42.9299C15.2058 43.1336 14.9133 43.2268 14.6187 43.1401C14.324 43.0513 14.1312 42.8129 14.1918 42.6071C14.2525 42.4013 14.5472 42.3059 14.844 42.3991C15.1365 42.4858 15.3293 42.7241 15.2687 42.9299Z" fill="#35434C"/>
<path d="M17.3963 43.0859C17.4028 43.3004 17.1537 43.4781 16.8438 43.4824C16.534 43.4889 16.2805 43.3156 16.2783 43.1054C16.2783 42.8887 16.5232 42.7132 16.833 42.7067C17.1428 42.7002 17.3963 42.8736 17.3963 43.0859Z" fill="#35434C"/>
<path d="M19.3766 42.7502C19.4135 42.9582 19.199 43.1749 18.8913 43.2312C18.5901 43.2876 18.3106 43.1576 18.2716 42.9496C18.2348 42.7351 18.4536 42.5206 18.7548 42.4642C19.0603 42.4101 19.3376 42.5357 19.3766 42.7502Z" fill="#35434C"/>
</g>
<defs>
<clipPath id="clip0_432_24818">
<rect width="52" height="52" fill="white"/>
</clipPath>
</defs>
</svg>
