<svg width="184" height="55" viewBox="0 0 184 55" fill="none" xmlns="http://www.w3.org/2000/svg">
<rect x="1.4748" y="0.758496" width="180.9" height="52.65" rx="6.075" fill="black"/>
<rect x="1.4748" y="0.758496" width="180.9" height="52.65" rx="6.075" stroke="#A6A6A6" stroke-width="1.35"/>
<path d="M92.783 29.4476C89.6078 29.4476 87.0198 31.8627 87.0198 35.1891C87.0198 38.4953 89.6078 40.9307 92.783 40.9307C95.9595 40.9307 98.5475 38.4953 98.5475 35.1891C98.5461 31.8627 95.9582 29.4476 92.783 29.4476ZM92.783 38.6708C91.0428 38.6708 89.543 37.2357 89.543 35.1905C89.543 33.1236 91.0442 31.7102 92.783 31.7102C94.5231 31.7102 96.023 33.1236 96.023 35.1905C96.023 37.2344 94.5231 38.6708 92.783 38.6708ZM80.2091 29.4476C77.0339 29.4476 74.4459 31.8627 74.4459 35.1891C74.4459 38.4953 77.0339 40.9307 80.2091 40.9307C83.3856 40.9307 85.9736 38.4953 85.9736 35.1891C85.9736 31.8627 83.3856 29.4476 80.2091 29.4476ZM80.2091 38.6708C78.4689 38.6708 76.9691 37.2357 76.9691 35.1905C76.9691 33.1236 78.4703 31.7102 80.2091 31.7102C81.9492 31.7102 83.4491 33.1236 83.4491 35.1905C83.4504 37.2344 81.9492 38.6708 80.2091 38.6708ZM65.2538 31.2107V33.6461H71.0831C70.9089 35.0163 70.4526 36.0167 69.756 36.7119C68.9082 37.5597 67.5812 38.4953 65.2538 38.4953C61.6655 38.4953 58.8602 35.6022 58.8602 32.0139C58.8602 28.4256 61.6655 25.5326 65.2538 25.5326C67.1897 25.5326 68.6031 26.294 69.6467 27.2727L71.3652 25.5542C69.9072 24.1623 67.9727 23.0972 65.2538 23.0972C60.3384 23.0972 56.2061 27.0986 56.2061 32.0139C56.2061 36.9293 60.3384 40.9307 65.2538 40.9307C67.9065 40.9307 69.9086 40.0599 71.4732 38.4291C73.0824 36.8199 73.5833 34.5573 73.5833 32.7308C73.5833 32.1665 73.5401 31.644 73.4523 31.2093H65.2538V31.2107ZM126.42 33.102C125.942 31.8195 124.484 29.4476 121.504 29.4476C118.546 29.4476 116.088 31.775 116.088 35.1891C116.088 38.4075 118.525 40.9307 121.786 40.9307C124.418 40.9307 125.94 39.3215 126.572 38.3859L124.615 37.0805C123.963 38.0376 123.07 38.6681 121.786 38.6681C120.504 38.6681 119.59 38.0808 119.003 36.9279L126.68 33.7527L126.42 33.102ZM118.59 35.0163C118.525 32.7969 120.308 31.667 121.592 31.667C122.592 31.667 123.44 32.1678 123.724 32.8847L118.59 35.0163ZM112.349 40.5837H114.87V23.7074H112.349V40.5837ZM108.215 30.7314H108.128C107.563 30.0564 106.475 29.4476 105.106 29.4476C102.234 29.4476 99.6032 31.9707 99.6032 35.2121C99.6032 38.4305 102.234 40.932 105.106 40.932C106.476 40.932 107.563 40.3232 108.128 39.6279H108.215V40.4541C108.215 42.6506 107.04 43.8251 105.149 43.8251C103.605 43.8251 102.647 42.7167 102.256 41.7812L100.059 42.6951C100.69 44.2166 102.364 46.0877 105.149 46.0877C108.107 46.0877 110.608 44.3475 110.608 40.1058V29.7972H108.216V30.7314H108.215ZM105.323 38.6708C103.583 38.6708 102.126 37.2128 102.126 35.2121C102.126 33.1884 103.583 31.7102 105.323 31.7102C107.04 31.7102 108.389 33.1884 108.389 35.2121C108.389 37.2128 107.04 38.6708 105.323 38.6708ZM138.237 23.7074H132.202V40.5837H134.719V34.1901H138.236C141.028 34.1901 143.774 32.1692 143.774 28.9494C143.774 25.7297 141.029 23.7074 138.237 23.7074ZM138.302 31.8411H134.719V26.0564H138.302C140.186 26.0564 141.255 27.6156 141.255 28.9494C141.255 30.2562 140.186 31.8411 138.302 31.8411ZM153.87 29.4179C152.047 29.4179 150.158 30.2211 149.376 32.0018L151.612 32.9346C152.09 32.0018 152.981 31.6967 153.914 31.6967C155.216 31.6967 156.541 32.4783 156.562 33.8675V34.0416C156.106 33.7811 155.129 33.3909 153.935 33.3909C151.526 33.3909 149.071 34.7153 149.071 37.1898C149.071 39.4484 151.048 40.9023 153.262 40.9023C154.955 40.9023 155.889 40.1423 156.475 39.2513H156.561V40.554H158.994V34.0835C158.995 31.0892 156.757 29.4179 153.87 29.4179ZM153.565 38.6667C152.742 38.6667 151.59 38.2536 151.59 37.233C151.59 35.9303 153.024 35.4308 154.262 35.4308C155.368 35.4308 155.89 35.6697 156.562 35.9951C156.367 37.5597 155.021 38.6667 153.565 38.6667ZM167.852 29.7864L164.965 37.1034H164.878L161.881 29.7864H159.168L163.662 40.0127L161.1 45.7016H163.727L170.654 29.7864H167.852ZM145.164 40.5837H147.682V23.7074H145.164V40.5837Z" fill="white"/>
<path d="M64.8141 13.9113C64.8141 15.0426 64.4793 15.9431 63.8083 16.6154C63.0469 17.4146 62.0534 17.8142 60.833 17.8142C59.6639 17.8142 58.6689 17.4092 57.8522 16.5992C57.0341 15.7878 56.625 14.7834 56.625 13.5846C56.625 12.3845 57.0341 11.3801 57.8522 10.5701C58.6689 9.75871 59.6639 9.35371 60.833 9.35371C61.4135 9.35371 61.9683 9.46711 62.4948 9.69256C63.0226 9.91936 63.4452 10.2204 63.7611 10.5971L63.0496 11.3099C62.5137 10.6686 61.7752 10.3487 60.8316 10.3487C59.9784 10.3487 59.2413 10.6484 58.6189 11.2478C57.9966 11.8472 57.6861 12.6261 57.6861 13.5833C57.6861 14.5404 57.9966 15.3194 58.6189 15.9188C59.2413 16.5182 59.9784 16.8179 60.8316 16.8179C61.7361 16.8179 62.4907 16.5168 63.0942 15.9134C63.4857 15.5205 63.7125 14.9738 63.7732 14.2731H60.8316V13.2998H64.756C64.7965 13.5117 64.8141 13.7156 64.8141 13.9113Z" fill="white"/>
<path d="M71.0377 10.5283H67.3495V13.096H70.6759V14.0693H67.3495V16.637H71.0377V17.6333H66.3087V9.53334H71.0377V10.5283Z" fill="white"/>
<path d="M75.4264 17.6333H74.3856V10.5283H72.123V9.53334H77.689V10.5283H75.4264V17.6333Z" fill="white"/>
<path d="M81.716 17.6333V9.53334H82.7569V17.6333H81.716Z" fill="white"/>
<path d="M87.3727 17.6333H86.3319V10.5283H84.0693V9.53334H89.6353V10.5283H87.3727V17.6333Z" fill="white"/>
<path d="M100.172 16.5871C99.3753 17.4052 98.3857 17.8142 97.2018 17.8142C96.0178 17.8142 95.0283 17.4052 94.2331 16.5871C93.4366 15.769 93.0397 14.7673 93.0397 13.5833C93.0397 12.3994 93.4366 11.3977 94.2331 10.5796C95.0283 9.76147 96.0178 9.35107 97.2018 9.35107C98.379 9.35107 99.3672 9.76282 100.166 10.585C100.966 11.4071 101.365 12.4061 101.365 13.5833C101.365 14.7673 100.967 15.769 100.172 16.5871ZM95.0013 15.908C95.6007 16.5155 96.3337 16.8179 97.2018 16.8179C98.0698 16.8179 98.8042 16.5142 99.4023 15.908C100.002 15.3005 100.303 14.5256 100.303 13.5833C100.303 12.641 100.002 11.8661 99.4023 11.2586C98.8042 10.6511 98.0698 10.3487 97.2018 10.3487C96.3337 10.3487 95.6007 10.6525 95.0013 11.2586C94.4032 11.8661 94.1022 12.641 94.1022 13.5833C94.1022 14.5256 94.4032 15.3005 95.0013 15.908Z" fill="white"/>
<path d="M102.826 17.6333V9.53334H104.092L108.029 15.8338H108.073L108.029 14.2732V9.53334H109.07V17.6333H107.983L103.864 11.0264H103.82L103.864 12.587V17.6333H102.826Z" fill="white"/>
<path d="M64.8141 13.9113C64.8141 15.0426 64.4793 15.9431 63.8083 16.6154C63.0469 17.4146 62.0534 17.8142 60.833 17.8142C59.6639 17.8142 58.6689 17.4092 57.8522 16.5992C57.0341 15.7878 56.625 14.7834 56.625 13.5846C56.625 12.3845 57.0341 11.3801 57.8522 10.5701C58.6689 9.75871 59.6639 9.35371 60.833 9.35371C61.4135 9.35371 61.9683 9.46711 62.4948 9.69256C63.0226 9.91936 63.4452 10.2204 63.7611 10.5971L63.0496 11.3099C62.5137 10.6686 61.7752 10.3487 60.8316 10.3487C59.9784 10.3487 59.2413 10.6484 58.6189 11.2478C57.9966 11.8472 57.6861 12.6261 57.6861 13.5833C57.6861 14.5404 57.9966 15.3194 58.6189 15.9188C59.2413 16.5182 59.9784 16.8179 60.8316 16.8179C61.7361 16.8179 62.4907 16.5168 63.0942 15.9134C63.4857 15.5205 63.7125 14.9738 63.7732 14.2731H60.8316V13.2998H64.756C64.7965 13.5117 64.8141 13.7156 64.8141 13.9113Z" stroke="white" stroke-width="0.27" stroke-miterlimit="10"/>
<path d="M71.0377 10.5283H67.3495V13.096H70.6759V14.0693H67.3495V16.637H71.0377V17.6333H66.3087V9.53334H71.0377V10.5283Z" stroke="white" stroke-width="0.27" stroke-miterlimit="10"/>
<path d="M75.4264 17.6333H74.3856V10.5283H72.123V9.53334H77.689V10.5283H75.4264V17.6333Z" stroke="white" stroke-width="0.27" stroke-miterlimit="10"/>
<path d="M81.716 17.6333V9.53334H82.7569V17.6333H81.716Z" stroke="white" stroke-width="0.27" stroke-miterlimit="10"/>
<path d="M87.3727 17.6333H86.3319V10.5283H84.0693V9.53334H89.6353V10.5283H87.3727V17.6333Z" stroke="white" stroke-width="0.27" stroke-miterlimit="10"/>
<path d="M100.172 16.5871C99.3753 17.4052 98.3857 17.8142 97.2018 17.8142C96.0178 17.8142 95.0283 17.4052 94.2331 16.5871C93.4366 15.769 93.0397 14.7673 93.0397 13.5833C93.0397 12.3994 93.4366 11.3977 94.2331 10.5796C95.0283 9.76147 96.0178 9.35107 97.2018 9.35107C98.379 9.35107 99.3672 9.76282 100.166 10.585C100.966 11.4071 101.365 12.4061 101.365 13.5833C101.365 14.7673 100.967 15.769 100.172 16.5871ZM95.0013 15.908C95.6007 16.5155 96.3337 16.8179 97.2018 16.8179C98.0698 16.8179 98.8042 16.5142 99.4023 15.908C100.002 15.3005 100.303 14.5256 100.303 13.5833C100.303 12.641 100.002 11.8661 99.4023 11.2586C98.8042 10.6511 98.0698 10.3487 97.2018 10.3487C96.3337 10.3487 95.6007 10.6525 95.0013 11.2586C94.4032 11.8661 94.1022 12.641 94.1022 13.5833C94.1022 14.5256 94.4032 15.3005 95.0013 15.908Z" stroke="white" stroke-width="0.27" stroke-miterlimit="10"/>
<path d="M102.826 17.6333V9.53334H104.092L108.029 15.8338H108.073L108.029 14.2732V9.53334H109.07V17.6333H107.983L103.864 11.0264H103.82L103.864 12.587V17.6333H102.826Z" stroke="white" stroke-width="0.27" stroke-miterlimit="10"/>
<g filter="url(#filter0_ii_722_7699)">
<path d="M14.8887 10.2597C14.4959 10.6755 14.2637 11.3208 14.2637 12.1564V42.013C14.2637 42.85 14.4959 43.494 14.8887 43.9098L14.9886 44.007L31.7138 27.2818V27.0847V26.8876L14.9886 10.1611L14.8887 10.2597Z" fill="url(#paint0_linear_722_7699)"/>
<path d="M37.287 32.8586L31.7129 27.2817V27.0846V26.8875L37.2884 21.312L37.4139 21.3836L44.0195 25.1366C45.9054 26.2085 45.9054 27.9621 44.0195 29.0354L37.4139 32.7884L37.287 32.8586Z" fill="url(#paint1_linear_722_7699)"/>
<g filter="url(#filter1_i_722_7699)">
<path d="M37.4148 32.7874L31.7124 27.085L14.8887 43.91C15.5097 44.5688 16.537 44.6498 17.694 43.9937L37.4148 32.7874Z" fill="url(#paint2_linear_722_7699)"/>
</g>
<path d="M37.4148 21.3823L17.694 10.1773C16.537 9.51988 15.5097 9.60223 14.8887 10.261L31.7137 27.0861L37.4148 21.3823Z" fill="url(#paint3_linear_722_7699)"/>
</g>
<defs>
<filter id="filter0_ii_722_7699" x="14.2637" y="9.72363" width="31.1699" height="34.7231" filterUnits="userSpaceOnUse" color-interpolation-filters="sRGB">
<feFlood flood-opacity="0" result="BackgroundImageFix"/>
<feBlend mode="normal" in="SourceGraphic" in2="BackgroundImageFix" result="shape"/>
<feColorMatrix in="SourceAlpha" type="matrix" values="0 0 0 0 0 0 0 0 0 0 0 0 0 0 0 0 0 0 127 0" result="hardAlpha"/>
<feOffset dy="-0.2025"/>
<feComposite in2="hardAlpha" operator="arithmetic" k2="-1" k3="1"/>
<feColorMatrix type="matrix" values="0 0 0 0 0 0 0 0 0 0 0 0 0 0 0 0 0 0 0.12 0"/>
<feBlend mode="normal" in2="shape" result="effect1_innerShadow_722_7699"/>
<feColorMatrix in="SourceAlpha" type="matrix" values="0 0 0 0 0 0 0 0 0 0 0 0 0 0 0 0 0 0 127 0" result="hardAlpha"/>
<feOffset dy="0.2025"/>
<feComposite in2="hardAlpha" operator="arithmetic" k2="-1" k3="1"/>
<feColorMatrix type="matrix" values="0 0 0 0 1 0 0 0 0 1 0 0 0 0 1 0 0 0 0.25 0"/>
<feBlend mode="normal" in2="effect1_innerShadow_722_7699" result="effect2_innerShadow_722_7699"/>
</filter>
<filter id="filter1_i_722_7699" x="14.8887" y="27.085" width="22.5264" height="17.3618" filterUnits="userSpaceOnUse" color-interpolation-filters="sRGB">
<feFlood flood-opacity="0" result="BackgroundImageFix"/>
<feBlend mode="normal" in="SourceGraphic" in2="BackgroundImageFix" result="shape"/>
<feColorMatrix in="SourceAlpha" type="matrix" values="0 0 0 0 0 0 0 0 0 0 0 0 0 0 0 0 0 0 127 0" result="hardAlpha"/>
<feOffset dy="-0.2025"/>
<feComposite in2="hardAlpha" operator="arithmetic" k2="-1" k3="1"/>
<feColorMatrix type="matrix" values="0 0 0 0 0 0 0 0 0 0 0 0 0 0 0 0 0 0 0.08 0"/>
<feBlend mode="normal" in2="shape" result="effect1_innerShadow_722_7699"/>
</filter>
<linearGradient id="paint0_linear_722_7699" x1="30.2312" y1="11.8405" x2="7.5755" y2="34.4962" gradientUnits="userSpaceOnUse">
<stop stop-color="#00A0FF"/>
<stop offset="0.0066" stop-color="#00A1FF"/>
<stop offset="0.2601" stop-color="#00BEFF"/>
<stop offset="0.5122" stop-color="#00D2FF"/>
<stop offset="0.7604" stop-color="#00DFFF"/>
<stop offset="1" stop-color="#00E3FF"/>
</linearGradient>
<linearGradient id="paint1_linear_722_7699" x1="46.4745" y1="27.0846" x2="13.81" y2="27.0846" gradientUnits="userSpaceOnUse">
<stop stop-color="#FFE000"/>
<stop offset="0.4087" stop-color="#FFBD00"/>
<stop offset="0.7754" stop-color="#FFA500"/>
<stop offset="1" stop-color="#FF9C00"/>
</linearGradient>
<linearGradient id="paint2_linear_722_7699" x1="34.318" y1="30.1817" x2="3.59404" y2="60.9057" gradientUnits="userSpaceOnUse">
<stop stop-color="#FF3A44"/>
<stop offset="1" stop-color="#C31162"/>
</linearGradient>
<linearGradient id="paint3_linear_722_7699" x1="10.6516" y1="0.322065" x2="24.3707" y2="14.0412" gradientUnits="userSpaceOnUse">
<stop stop-color="#32A071"/>
<stop offset="0.0685" stop-color="#2DA771"/>
<stop offset="0.4762" stop-color="#15CF74"/>
<stop offset="0.8009" stop-color="#06E775"/>
<stop offset="1" stop-color="#00F076"/>
</linearGradient>
</defs>
</svg>
