<svg width="7" height="6" viewBox="0 0 7 6" fill="none" xmlns="http://www.w3.org/2000/svg">
<path d="M2.80787 5.75197C4.12023 5.75197 5.1841 4.6881 5.1841 3.37574C5.1841 2.06339 4.12023 0.999512 2.80787 0.999512C1.49552 0.999512 0.431641 2.06339 0.431641 3.37574C0.431641 4.6881 1.49552 5.75197 2.80787 5.75197Z" fill="#E6F8E9"/>
<path d="M2.83379 5.21236L2.80365 5.161C2.34326 4.3766 1.11985 2.71197 1.10749 2.69525L1.08984 2.67127L1.50665 2.25935L2.82605 3.18065C3.65677 2.10266 4.43178 1.36225 4.93731 0.929876C5.49033 0.456905 5.8503 0.239164 5.85394 0.237078L5.86212 0.232178H6.56915L6.50161 0.292324C4.76468 1.8394 2.88203 5.12757 2.86328 5.16061L2.83379 5.21236Z" fill="#6FD480"/>
</svg>
