<svg width="57" height="70" viewBox="0 0 57 70" fill="none" xmlns="http://www.w3.org/2000/svg">
<path d="M6.61329 48.3202L11.2652 31.6468L14.6605 41.9978L23.8394 39.1258L15.7357 59.2481L15.2146 46.598L6.61329 48.3202Z" fill="#FFD35E"/>
<path d="M46.5056 4.33786C43.3488 2.45929 39.4908 0.849594 35.8142 0.850646C35.5857 0.815556 35.3573 0.779746 35.1296 0.75341C27.9821 -0.0966078 20.3997 3.38772 16.2652 9.41957C12.0694 15.5418 11.4955 24.0664 14.8368 30.63C16.3545 33.6232 18.5971 36.1844 20.0106 39.1592C18.0798 39.9123 16.399 40.6468 14.9431 41.3756C14.0119 37.3874 13.2027 32.6531 12.2354 28.7445C12.1478 28.3906 11.8333 28.1412 11.4699 28.1379C11.0747 28.1347 10.7852 28.3776 10.6885 28.7299L5.09566 49.0583C5.01071 49.3661 5.08319 49.6944 5.4522 49.926C5.75292 50.2511 6.11545 50.5196 6.52709 50.6822C9.06032 49.9538 11.8141 49.1628 14.3795 48.4253C14.2972 52.8891 14.6166 55.9248 15.0519 60.9919C15.1038 61.6101 15.8039 61.9314 16.307 61.5764C16.5241 61.5425 16.8041 61.4744 17.2579 61.3229C18.7576 56.8739 20.3348 52.5288 21.9842 48.1939C22.4447 49.3391 23.3868 50.4697 24.0134 50.6299L24.2834 51.1461C23.5439 52.6431 23.2486 54.3103 24.2807 55.6149C23.2973 56.9459 23.3538 58.7547 24.2762 60.0007C24.0807 60.5551 24.0204 61.1771 24.1148 61.763C24.3457 63.1856 25.2638 63.7293 25.5337 64.0339C26.6983 65.5659 27.8944 67.3171 29.2772 68.6419L29.3867 68.8474C29.8877 69.7854 33.476 69.7525 34.9649 69.3143C37.3751 69.7001 41.1931 67.7309 42.3671 64.322C43.7449 63.9574 44.6603 62.0899 44.2578 60.526C44.0015 59.5306 44.305 59.5635 44.6014 59.2421C45.3719 58.4062 45.6984 57.1638 45.3765 56.0709C45.234 55.5872 44.8344 55.0661 44.3386 55.1704C45.4229 54.2429 45.8994 52.5118 44.8946 51.0116C45.7891 50.4865 46.6004 49.7561 46.8221 49.1574C47.7396 46.6799 47.2459 44.0118 48.4201 41.429C49.5438 38.9575 51.3198 36.8345 52.7657 34.5522C56.5692 28.5484 57.1692 20.9227 54.3613 14.3818C52.6541 10.405 50.229 6.55351 46.5056 4.33786ZM26.3256 62.5616C25.6649 62.0004 25.5407 61.2434 25.7813 60.5474C30.2856 61.6817 29.8017 58.7337 28.4362 59.0298C26.7187 59.3866 25.6529 58.7706 25.3832 58.7463C24.6491 57.2581 25.8382 56.333 25.98 56.0486C27.5948 56.4928 29.2254 56.6472 30.8641 56.5118C31.3042 56.4749 31.6328 56.0866 31.5982 55.645C31.563 55.2033 31.1801 54.8807 30.7374 54.9114C28.9002 55.0643 27.0265 54.7934 25.3043 54.1386C24.92 52.8721 25.9509 51.6525 25.9827 51.1937C30.0651 51.8854 35.4405 51.7884 39.6736 51.2722C39.7603 51.453 40.3411 52.3132 40.4426 53.1818C40.6034 54.564 39.7918 54.4165 39.7083 55.1217C39.7154 55.242 39.5235 55.7492 39.9719 56.1075C40.7054 56.6926 40.9258 57.9298 40.3221 58.8219C38.9694 59.4302 41.0856 60.623 39.9454 62.1098C39.8216 62.1312 32.7675 64.659 26.3256 62.5616ZM15.0145 45.7718C12.3403 46.5403 9.71724 47.3186 7.0162 48.1024L11.3865 32.2178C12.1185 35.6327 12.8213 39.4954 13.6274 42.7524C13.7531 43.2635 14.3248 43.5071 14.777 43.2645C16.7542 42.2088 19.3137 41.1026 22.4018 39.9688C20.0245 46.2892 18.2484 51.3737 16.3194 57.044C16.025 53.5342 15.8614 50.7761 16.0313 46.5728C16.0533 46.0293 15.5404 45.6213 15.0145 45.7718ZM22.9875 45.5583C23.6727 43.7942 24.3715 42.0289 25.0859 40.2563C24.9574 39.9403 24.7264 39.354 24.5246 38.845C24.7053 38.2061 24.0999 37.6604 23.5018 37.8722C22.8102 38.1141 22.152 38.3528 21.5118 38.59C19.9645 35.2741 17.8052 32.9368 16.2617 29.8966C13.1792 23.8406 13.7099 15.9756 17.5819 10.3263C21.3875 4.77415 28.3559 1.56089 34.9372 2.34801C35.2047 2.37945 35.4716 2.42083 35.7292 2.46063C41.9569 3.50375 47.6453 8.05536 50.2219 14.0574C51.9621 18.1076 52.1827 22.958 50.8416 27.7197C48.8753 34.8568 44.5489 37.4819 42.9557 42.8636C41.9499 46.3222 43.1457 48.3827 41.3998 49.4106C37.1444 49.8699 32.7236 50.6966 24.7861 49.3159C24.096 48.5747 23.3454 48.3301 22.9875 45.5583ZM30.6319 67.7752C30.2095 67.1082 30.2838 67.7049 27.9726 64.6154C31.2393 65.2203 34.5503 65.0598 37.7873 64.3505C37.6045 64.5651 37.4224 64.7809 37.2419 64.9952C34.7587 67.9421 35.0368 67.3404 34.7925 67.6914C33.5718 68.1133 32.1763 68.1411 30.6319 67.7752Z" fill="#242B42"/>
<path d="M9.66439 21.1698C9.58301 20.7357 9.16066 20.4549 8.73321 20.5339L1.06853 21.9931C0.63535 22.0756 0.349417 22.494 0.430274 22.9281C0.510121 23.3547 0.918562 23.6461 1.36146 23.564L9.02613 22.1049C9.45932 22.0223 9.74525 21.6039 9.66439 21.1698Z" fill="#242B42"/>
<path d="M2.03844 13.6638L8.20696 15.9274C8.62285 16.0789 9.08078 15.8643 9.23291 15.4502C9.38587 15.0347 9.17463 14.5747 8.76097 14.4228L2.59141 12.1592C2.17931 12.0089 1.71842 12.2209 1.56598 12.6369C1.41302 13.0525 1.62478 13.5119 2.03844 13.6638Z" fill="#242B42"/>
<path d="M10.4017 10.7376C10.7478 11.0163 11.2499 10.9568 11.5264 10.6136C11.8037 10.2679 11.7506 9.76264 11.4072 9.48513C10.2582 8.55746 9.27707 7.45169 8.49063 6.19814C8.25538 5.82244 7.76141 5.71258 7.38884 5.94965C7.01471 6.18672 6.90182 6.68248 7.13708 7.05661C8.01709 8.46013 9.11533 9.69863 10.4017 10.7376Z" fill="#242B42"/>
<path d="M28.9512 34.2582C35.0331 27.6917 41.2049 21.1821 47.2195 14.6864C47.5846 14.2929 47.4685 13.6618 46.9954 13.4243C45.8852 12.866 44.755 12.3762 43.698 11.8447C43.3954 11.6927 43.0295 11.7484 42.7841 11.9865C38.0821 16.5462 33.3589 21.5676 28.7338 26.9211C26.9611 24.6501 25.8393 22.9814 24.1109 20.0891C23.8981 19.7318 23.4466 19.5996 23.0745 19.7843C21.8956 20.3669 20.8522 21.1952 19.8026 22.0057C19.4812 22.2531 19.3935 22.7027 19.5996 23.0521C22.1862 27.44 24.7525 30.1802 27.7255 34.1936C28.0221 34.594 28.6104 34.6268 28.9512 34.2582ZM21.3403 22.839C21.9236 22.3907 22.5205 21.9454 23.1347 21.5754C24.8669 24.438 26.0454 26.1239 28.0795 28.6816C28.3968 29.0803 28.9906 29.0735 29.3095 28.7013C33.9719 23.2627 38.7396 18.1615 43.4882 13.5307C44.13 13.8416 44.7951 14.1464 45.3145 14.3919C39.729 20.412 34.0177 26.4466 28.4342 32.4659C25.8462 29.0458 23.5751 26.4976 21.3403 22.839Z" fill="#242B42"/>
</svg>
