<svg width="605" height="500" viewBox="0 0 605 500" fill="none" xmlns="http://www.w3.org/2000/svg">
<g opacity="0.64">
<path d="M763.616 143.26C766.209 144.472 768.416 146.383 769.993 148.78C771.569 151.176 772.454 153.965 772.547 156.836C772.641 159.708 771.941 162.549 770.524 165.044C769.107 167.539 767.029 169.591 764.521 170.971L552.531 286.995L464.261 335.148C461.38 336.759 458.06 337.397 454.79 336.967C451.521 336.537 448.476 335.063 446.104 332.762C443.732 330.461 442.16 327.454 441.619 324.187C441.077 320.919 441.596 317.563 443.099 314.615L512.466 174.151C513.599 171.962 514.191 169.532 514.191 167.064C514.191 164.597 513.599 162.166 512.466 159.978L440.114 22.785C438.605 19.9112 438.031 16.6346 438.472 13.416C438.914 10.1973 440.348 7.19873 442.575 4.84193C444.801 2.48514 447.707 0.888849 450.883 0.277503C454.059 -0.333844 457.346 0.0706893 460.282 1.434L763.616 143.26Z" fill="#0F2642"/>
<path opacity="0.66" d="M546.927 434.001C543.2 433.975 539.54 432.997 536.292 431.159C533.045 429.321 530.316 426.684 528.362 423.494C526.409 420.305 525.294 416.669 525.125 412.928C524.955 409.187 525.735 405.465 527.392 402.11L596.85 261.374C597.501 260.094 597.84 258.678 597.84 257.24C597.84 255.803 597.501 254.386 596.85 253.106L524.498 115.914C522.34 111.842 521.512 107.192 522.13 102.622C522.748 98.0512 524.781 93.7917 527.941 90.4459C531.102 87.1002 535.229 84.8378 539.74 83.9786C544.251 83.1194 548.917 83.7071 553.077 85.6586L856.411 227.485C860.085 229.213 863.21 231.929 865.442 235.332C867.674 238.735 868.924 242.692 869.055 246.765C869.186 250.838 868.193 254.868 866.185 258.408C864.176 261.949 861.232 264.862 857.677 266.826L557.418 431.003C554.224 432.865 550.618 433.895 546.927 434.001ZM543.852 96.834C542.649 96.8508 541.462 97.1084 540.359 97.592C539.256 98.0757 538.261 98.7756 537.431 99.6505C536.137 101.024 535.303 102.769 535.043 104.642C534.784 106.515 535.113 108.423 535.984 110.099L608.336 247.292C609.938 250.41 610.774 253.868 610.774 257.376C610.774 260.885 609.938 264.344 608.336 267.462L538.878 407.925C538.042 409.657 537.776 411.611 538.117 413.506C538.459 415.4 539.39 417.136 540.777 418.464C542.162 419.769 543.921 420.603 545.804 420.847C547.687 421.092 549.598 420.735 551.268 419.827L851.437 255.65C852.892 254.851 854.1 253.666 854.929 252.224C855.759 250.782 856.177 249.138 856.14 247.473C856.085 245.807 855.575 244.189 854.666 242.795C853.757 241.401 852.483 240.285 850.985 239.569L547.741 97.8333C546.551 97.1484 545.221 96.7444 543.852 96.6521V96.834Z" fill="#2EA2EB"/>
<path d="M99.428 306.257C96.8355 307.47 94.6283 309.38 93.0517 311.777C91.475 314.173 90.5908 316.962 90.4971 319.834C90.4034 322.705 91.1039 325.546 92.5208 328.041C93.9378 330.536 96.0157 332.588 98.5236 333.968L310.514 449.901L398.783 498.145C401.676 499.709 404.989 500.307 408.243 499.852C411.496 499.397 414.521 497.913 416.879 495.615C419.237 493.317 420.805 490.325 421.356 487.072C421.908 483.818 421.414 480.473 419.946 477.521L350.579 337.057C349.445 334.869 348.853 332.438 348.853 329.971C348.853 327.503 349.445 325.073 350.579 322.884L422.93 185.691C424.439 182.818 425.013 179.541 424.572 176.322C424.131 173.104 422.696 170.105 420.47 167.748C418.244 165.391 415.338 163.795 412.162 163.184C408.985 162.572 405.698 162.977 402.762 164.34L99.428 306.257Z" fill="#0F2642"/>
<path opacity="0.66" d="M336.641 424.921C332.933 424.901 329.291 423.932 326.06 422.104L26.072 257.927C22.5098 255.986 19.554 253.09 17.5339 249.561C15.5138 246.031 14.5086 242.008 14.6305 237.939C14.7524 233.869 15.9965 229.914 18.2242 226.513C20.4519 223.112 23.5758 220.4 27.2477 218.678L330.401 76.942C334.574 75.0002 339.248 74.4223 343.764 75.2895C348.281 76.1568 352.413 78.4255 355.579 81.7763C358.745 85.1271 360.784 89.3912 361.411 93.9679C362.037 98.5445 361.219 103.203 359.071 107.288L286.719 244.39C286.068 245.67 285.729 247.087 285.729 248.524C285.729 249.961 286.068 251.378 286.719 252.658L356.086 393.121C357.738 396.482 358.514 400.208 358.343 403.952C358.172 407.696 357.059 411.335 355.107 414.53C353.156 417.724 350.431 420.369 347.185 422.218C343.94 424.067 340.282 425.06 336.551 425.103L336.641 424.921ZM339.716 87.663C338.4 87.6844 337.103 87.9945 335.918 88.5716L32.5837 230.398C31.0752 231.109 29.7916 232.225 28.8744 233.622C27.9572 235.02 27.442 236.644 27.3859 238.317C27.3298 239.99 27.7348 241.646 28.5562 243.103C29.3777 244.559 30.5837 245.759 32.0411 246.57L332.3 410.747C333.979 411.643 335.897 411.985 337.78 411.724C339.663 411.463 341.417 410.613 342.791 409.293C344.164 407.955 345.078 406.213 345.403 404.319C345.728 402.426 345.447 400.478 344.6 398.754L275.143 258.654C273.584 255.539 272.772 252.101 272.772 248.614C272.772 245.128 273.584 241.69 275.143 238.575L347.494 101.382C348.365 99.7061 348.694 97.7983 348.435 95.9254C348.175 94.0524 347.341 92.3077 346.047 90.934C345.267 89.9869 344.304 89.2087 343.216 88.6465C342.128 88.0843 340.937 87.7496 339.716 87.663Z" fill="#2EA2EB"/>
<path d="M383.236 347.868C381.759 347.888 380.299 347.545 378.985 346.868C376.684 345.734 374.926 343.728 374.095 341.293C373.264 338.857 373.429 336.19 374.554 333.876L455.949 166.973C457.076 164.648 459.077 162.868 461.511 162.024C463.945 161.181 466.613 161.343 468.927 162.476C471.242 163.608 473.014 165.618 473.853 168.063C474.693 170.508 474.531 173.188 473.404 175.514L392.008 342.416C391.198 344.057 389.947 345.437 388.397 346.4C386.846 347.364 385.059 347.872 383.236 347.868Z" fill="#0F2642"/>
</g>
</svg>
