<svg width="30" height="25" viewBox="0 0 30 25" fill="none" xmlns="http://www.w3.org/2000/svg">
<path d="M24.9348 13.8579C25.6041 13.9627 25.802 12.4197 25.7988 7.28502C25.7919 1.8497 25.5926 0.650963 24.7948 0.806534C23.7003 1.03397 23.8567 13.6604 24.9348 13.8579Z" fill="#F6C673"/>
<path d="M1.01516 15.8225C0.844887 17.8425 1.16928 18.1314 5.49268 19.823C9.95631 21.5749 10.834 21.736 11.2316 20.9267C11.9465 19.4563 10.9131 18.6136 5.50017 16.1714C1.50556 14.3719 1.14082 14.3315 1.01516 15.8225Z" fill="#F6C673"/>
<path d="M8.90156 5.23956C8.7599 6.69045 9.0039 7.24382 10.5814 9.10121C15.282 14.5931 18.204 18.8888 18.4232 16.0591C18.5205 14.9048 17.7519 13.7937 12.4672 7.18702C9.52846 3.54864 9.10381 3.29972 8.90156 5.23956Z" fill="#F6C673"/>
</svg>
