<svg width="72" height="71" viewBox="0 0 72 71" fill="none" xmlns="http://www.w3.org/2000/svg">
<circle cx="36.0774" cy="35.6902" r="35.1429" fill="#52B2EE"/>
<path d="M36.0381 52.2731C45.2014 52.2731 52.6298 44.8448 52.6298 35.6814C52.6298 26.518 45.2014 19.0896 36.0381 19.0896C26.8747 19.0896 19.4463 26.518 19.4463 35.6814C19.4463 44.8448 26.8747 52.2731 36.0381 52.2731Z" stroke="white" stroke-width="2.66345" stroke-linecap="round" stroke-linejoin="round"/>
<path d="M22.4883 45.2561L24.5104 44.029C24.7109 43.9053 24.8765 43.7324 24.9915 43.5267C25.1064 43.321 25.1669 43.0894 25.1672 42.8538L25.2017 36.6146C25.2045 36.3559 25.2826 36.1037 25.4264 35.8887L28.8485 30.5136C28.9511 30.3548 29.0849 30.2185 29.2418 30.1128C29.3986 30.0071 29.5752 29.9343 29.761 29.8988C29.9467 29.8633 30.1378 29.8657 30.3225 29.9061C30.5073 29.9464 30.682 30.0237 30.836 30.1334L34.2235 32.5876C34.5158 32.7914 34.8715 32.8834 35.2259 32.8469L40.6701 32.1037C41.0004 32.0582 41.3021 31.892 41.517 31.637L45.3538 27.2126C45.5813 26.9429 45.6986 26.5972 45.6822 26.2447L45.4921 22.0449" stroke="white" stroke-width="2.66345" stroke-linecap="round" stroke-linejoin="round"/>
<path d="M46.2526 48.7647L44.386 46.8981C44.2133 46.7255 43.999 46.6005 43.7638 46.5352L40.0479 45.5673C39.7216 45.478 39.4393 45.2721 39.2545 44.9886C39.0698 44.7051 38.9954 44.3637 39.0455 44.0291L39.443 41.2292C39.4825 40.9938 39.5808 40.772 39.7288 40.5847C39.8769 40.3974 40.0699 40.2505 40.2899 40.1577L45.5439 37.9627C45.788 37.861 46.0561 37.8313 46.3164 37.8772C46.5768 37.9232 46.8186 38.0428 47.013 38.222L51.3165 42.1625" stroke="white" stroke-width="2.66345" stroke-linecap="round" stroke-linejoin="round"/>
</svg>
